<svg width="1628" height="281" viewBox="0 0 1628 281" fill="none" xmlns="http://www.w3.org/2000/svg">
<path d="M97.3791 232.88C83.4912 232.946 70.5857 230.94 58.6624 226.862C46.7391 222.785 35.9669 217.379 26.3459 210.646C16.8894 203.746 8.58789 196.345 1.44138 188.442L26.056 148.894C28.2317 154.506 31.8115 159.862 36.7956 164.964C41.9449 170.065 47.9182 174.584 54.7154 178.52C61.5126 182.456 68.6366 185.564 76.0874 187.844C83.7035 190.123 91.1489 191.245 98.4234 191.211C109.335 191.16 118.007 189.383 124.439 185.881C130.87 182.213 134.071 177.404 134.043 171.452C134.021 166.822 132.516 163.027 129.526 160.065C126.7 156.937 123.382 154.472 119.571 152.671C115.924 150.705 112.775 148.983 110.122 147.508C108.134 146.525 104.49 145.054 99.1896 143.095C94.0542 140.97 88.2567 138.682 81.7972 136.233C75.3376 133.783 69.2095 131.497 63.4128 129.375C57.6153 127.087 53.0598 125.207 49.7461 123.735C25.0597 112.773 12.6622 95.7193 12.5536 72.5729C12.5186 65.133 13.8898 57.8518 16.6671 50.7294C19.6089 43.4408 24.0418 36.8066 29.9658 30.8267C35.8898 24.8469 43.4729 20.0992 52.7152 16.5838C61.9574 13.0684 73.0265 11.2804 85.9223 11.2198C99.9755 11.1539 112.465 12.6659 123.392 15.756C134.318 18.6807 143.925 22.4383 152.213 27.0288C160.667 31.6185 167.882 36.462 173.858 41.5593L151.221 79.858C132.784 61.7577 111.992 52.7619 88.8459 52.8706C79.0913 52.9164 71.6565 54.0259 66.5413 56.1993C61.5907 58.2066 58.2122 60.5371 56.406 63.191C54.7643 65.6787 53.9474 67.7492 53.9551 69.4025C53.9683 72.2132 54.9735 75.0192 56.9707 77.8205C59.1332 80.621 63.8591 83.5749 71.1484 86.682C74.1306 87.9907 78.1063 89.6254 83.0756 91.5861C88.2094 93.3807 93.8404 95.4209 99.9685 97.7068C106.262 99.992 112.391 102.443 118.355 105.061C124.484 107.512 130.035 110.048 135.007 112.671C140.975 115.949 147.111 119.971 153.416 124.736C159.721 129.501 165.04 135.428 169.372 142.518C173.868 149.44 176.14 157.945 176.187 168.03C176.216 174.147 175.091 180.931 172.811 188.382C170.531 195.667 166.513 202.713 160.758 209.519C155.003 216.324 147.011 221.901 136.78 226.247C126.55 230.594 113.416 232.805 97.3791 232.88ZM199.557 229.673C199.509 219.588 199.449 206.692 199.375 190.985C199.466 175.113 199.548 157.504 199.623 138.159C199.863 118.814 200.181 98.4764 200.577 77.1463C201.138 55.8154 201.782 34.4842 202.508 13.1525L244.667 12.7066C244.049 22.1336 243.442 33.6273 242.844 47.1876C242.247 60.7478 241.736 75.2997 241.313 90.8432C252.672 80.2085 265.708 74.8565 280.422 74.7874C290.508 74.7401 298.865 76.5196 305.496 80.1258C312.291 83.7313 317.77 88.5003 321.931 94.4328C326.092 100.2 329.263 106.551 331.445 113.484C333.627 120.418 335.147 127.272 336.005 134.047C336.863 140.657 337.304 146.524 337.328 151.649C337.379 162.561 337.347 173.391 337.232 184.138C337.117 194.885 336.996 204.31 336.869 212.412C336.907 220.513 336.934 226.217 336.949 229.524L293.551 229.976C294.182 223.524 294.561 216.083 294.686 207.65C294.977 199.216 295.102 190.536 295.06 181.608C295.183 172.514 295.225 163.916 295.187 155.815C295.061 129.031 288.716 115.669 276.151 115.728C272.348 115.746 268.137 116.758 263.517 118.763C258.897 120.769 254.447 123.931 250.169 128.25C246.056 132.568 242.776 138.288 240.329 145.408C240.215 156.321 240.182 166.903 240.231 177.153C240.275 186.577 240.399 195.422 240.603 203.688C240.972 211.787 241.258 219.97 241.462 228.236L199.557 229.673ZM435.721 231.788C422.495 231.85 410.912 229.755 400.971 225.503C391.197 221.25 383.068 215.419 376.585 208.009C370.101 200.435 365.266 191.777 362.079 182.037C358.892 172.297 357.273 162.054 357.223 151.308C357.171 140.396 359.025 130.302 362.785 121.025C366.708 111.583 372.043 103.374 378.789 96.3979C385.7 89.4214 393.776 84.0101 403.017 80.164C412.257 76.1526 422.333 74.1212 433.245 74.07C444.653 74.0165 455.243 75.9508 465.016 79.8729C474.79 83.7951 483.33 89.2937 490.638 96.3688C497.946 103.444 503.607 111.767 507.62 121.337C511.798 130.907 513.913 141.313 513.966 152.556C514.083 177.521 507.313 196.98 493.656 210.932C479.998 224.719 460.686 231.671 435.721 231.788ZM435.285 191.614C447.354 191.557 456.514 188.125 462.765 181.317C469.181 174.508 472.359 164.738 472.299 152.008C472.246 140.6 468.731 131.44 461.754 124.529C454.778 117.617 445.668 114.188 434.425 114.241C427.647 114.273 421.456 116.12 415.851 119.784C410.246 123.283 405.722 128.016 402.278 133.984C398.998 139.786 397.375 146.242 397.409 153.351C397.438 159.634 398.707 165.745 401.215 171.685C403.888 177.625 408.044 182.483 413.683 186.259C419.322 189.87 426.522 191.655 435.285 191.614ZM588.831 231.069C575.108 231.134 563.402 220.525 553.713 199.242C550.37 191.652 547.438 183.316 544.915 174.235C542.393 165.153 540.2 155.905 538.337 146.489C536.639 137.073 535.192 128.069 533.994 119.478C532.961 110.72 532.098 103.036 531.406 96.4254C530.878 89.6492 530.441 84.5258 530.094 81.0554L570.721 71.4406C572.881 108.962 575.991 137.467 580.051 156.958C584.275 176.447 587.463 186.187 589.612 186.177C590.769 186.172 592.164 183.851 593.795 179.213C595.592 174.576 597.547 168.449 599.661 160.834C601.774 153.053 603.8 144.529 605.741 135.261C607.682 125.993 609.374 116.644 610.817 107.213C608.777 95.1529 607.409 85.5699 606.714 78.4637L648.619 76.779L648.633 79.7549C648.665 86.5335 649.198 94.4671 650.233 103.556C651.267 112.644 652.552 122.062 654.085 131.81C655.618 141.392 657.231 150.313 658.923 158.572C660.78 166.83 662.548 173.517 664.225 178.635C665.903 183.752 667.32 186.308 668.477 186.303C669.469 186.298 670.864 184.06 672.662 179.587C674.46 175.115 676.415 168.988 678.528 161.207C680.806 153.426 683.079 144.57 685.347 134.639C687.614 124.543 689.797 113.951 691.894 102.864C693.99 91.6115 695.674 80.4434 696.945 69.36L737.905 77.8478C735.168 93.5675 731.852 109.207 727.957 124.767C724.227 140.161 720.243 154.481 716.007 167.728C711.769 180.809 707.605 191.823 703.514 200.771C694.347 220.489 682.903 230.38 669.181 230.444C664.717 230.465 659.585 229.084 653.785 226.3C648.151 223.681 642.917 218.085 638.082 209.51C636.414 206.376 634.743 202.582 633.068 198.125C631.394 193.669 629.8 188.717 628.287 183.268C626.331 189.394 624.373 194.859 622.412 199.663C613.747 220.536 602.553 231.005 588.831 231.069ZM768.658 227.001C768.484 225.183 768.392 223.2 768.382 221.05C768.372 218.901 768.36 216.421 768.347 213.61C768.314 206.501 768.44 198.068 768.724 188.312C769.008 178.391 769.455 167.89 770.065 156.81C770.673 145.564 771.282 134.318 771.89 123.073C772.498 111.662 773.108 100.747 773.72 90.3278C774.498 79.9081 775.198 70.5633 775.821 62.2937C772.189 63.4681 768.97 64.5579 766.164 65.563L759.521 23.9298C778.178 18.5514 795.519 14.502 811.544 11.7814C827.734 9.06003 842.36 7.66869 855.421 7.60738C882.039 7.48242 902.399 12.4296 916.499 22.4488C930.6 32.4681 937.695 47.0669 937.785 66.2454C937.836 77.1572 935.482 86.3444 930.723 93.8068C925.962 101.104 919.212 107.17 910.472 112.006C932.016 122.817 942.846 140.54 942.962 165.174C943.013 176.086 940.989 185.272 936.891 192.731C932.957 200.024 927.859 205.918 921.598 210.411C915.336 214.904 908.656 218.242 901.557 220.425C894.624 222.772 888.017 224.291 881.738 224.982C875.624 225.838 870.832 226.273 867.36 226.29C858.763 226.33 849.583 225.547 839.82 223.939C830.058 222.331 820.54 219.896 811.266 216.633C811.281 219.94 811.296 223.081 811.31 226.057L768.658 227.001ZM856.607 49.0183C850.656 49.0462 844.374 49.4064 837.764 50.0987C831.319 50.625 824.875 51.4819 818.432 52.6695C817.497 64.7434 816.571 78.8012 815.654 94.843C817.804 94.9983 819.954 95.0708 822.103 95.0608C824.418 95.0499 826.733 95.039 829.047 95.0282C872.695 94.8232 894.477 85.7929 894.393 67.9371C894.365 61.9852 890.954 57.3718 884.16 54.097C877.53 50.6561 868.346 48.9632 856.607 49.0183ZM834.935 134.185C831.463 134.201 827.908 134.218 824.271 134.235C820.799 134.251 817.245 134.351 813.608 134.533C813.312 141.809 813.015 149.085 812.719 156.361C812.588 163.637 812.373 170.83 812.076 177.941C821.348 180.708 830.451 182.732 839.385 184.013C848.318 185.128 856.009 185.671 862.457 185.64C876.179 185.576 886.009 183.876 891.945 180.542C897.881 177.042 900.83 171.407 900.794 163.636C900.749 154.047 895.011 146.716 883.579 141.645C872.312 136.572 856.097 134.086 834.935 134.185ZM1020.89 229.041C1010.31 229.091 1001.54 227.231 994.574 223.461C987.778 219.855 982.299 214.838 978.135 208.41C974.137 201.98 971.127 194.802 969.106 186.876C967.249 178.783 965.97 170.44 965.268 161.845C964.731 153.085 964.444 144.654 964.406 136.553C964.362 127.295 964.566 117.87 965.017 108.278C965.633 98.6857 966.245 88.184 966.853 76.773L1012.22 73.832C1011.74 77.3063 1011.02 82.5177 1010.06 89.4663C1009.11 96.4149 1008.23 104.355 1007.45 113.287C1006.66 122.219 1006.29 131.562 1006.34 141.316C1006.42 157.354 1007.88 169.251 1010.72 177.008C1013.57 184.6 1017.8 188.383 1023.43 188.357C1034.67 188.304 1042.9 180.081 1048.11 163.689C1053.32 147.296 1055.85 121.409 1055.68 86.0281L1055.63 74.6202L1076.71 74.0253L1102.25 73.4094C1100 88.9614 1098.34 103.271 1097.24 116.337C1096.14 129.404 1095.45 140.402 1095.16 149.331C1094.87 158.096 1094.74 163.966 1094.75 166.942C1094.79 174.547 1095.47 180 1096.81 183.3C1098.15 186.435 1100.47 187.995 1103.78 187.979C1105.43 187.972 1107.25 187.632 1109.23 186.962C1111.21 186.291 1113.52 185.123 1116.16 183.457L1114.62 226.121C1108.34 227.142 1102.89 227.664 1098.26 227.686C1090.32 227.723 1083.79 226.266 1078.65 223.314C1073.67 220.361 1069.69 216.412 1066.69 211.466C1061.59 216.946 1055.24 221.192 1047.65 224.203C1040.22 227.38 1031.3 228.992 1020.89 229.041ZM1199.31 227.459C1190.71 227.5 1182.27 226.051 1173.99 223.114C1165.88 220.176 1158.5 215.582 1151.85 209.33C1145.38 203.243 1140.22 195.579 1136.37 186.338C1132.52 176.932 1130.57 165.947 1130.51 153.382C1130.44 139.163 1132.54 126.918 1136.79 116.648C1141.2 106.211 1147.03 97.6687 1154.27 91.0213C1161.52 84.2086 1169.59 79.1279 1178.51 75.7794C1187.42 72.4309 1196.34 70.7356 1205.27 70.6937C1210.56 70.6689 1215.6 71.0585 1220.4 71.8627C1225.2 72.5015 1229.67 73.4725 1233.81 74.7758C1234.25 62.7043 1234.77 50.5497 1235.37 38.312C1236.14 26.0736 1236.99 14.0001 1237.93 2.09162L1279.61 4.62401C1278.35 18.3527 1277.26 33.1553 1276.34 49.0318C1275.42 64.743 1274.76 80.7836 1274.34 97.1538C1274.08 113.523 1273.99 129.478 1274.07 145.02C1274.13 159.569 1274.36 173.456 1274.76 186.681C1275.31 199.74 1275.95 211.641 1276.66 222.384L1233.77 225.81C1233.59 222.669 1233.49 219.611 1233.48 216.635C1228.7 219.799 1223.42 222.386 1217.65 224.397C1212.03 226.408 1205.92 227.428 1199.31 227.459ZM1170.43 150.962C1170.47 159.559 1172.15 166.33 1175.48 171.275C1178.81 176.054 1182.88 179.424 1187.68 181.385C1192.49 183.347 1197.12 184.317 1201.58 184.296C1206.88 184.271 1212.16 183.089 1217.44 180.75C1222.72 178.41 1227.66 174.336 1232.26 168.528C1232.25 166.544 1232.24 164.643 1232.24 162.824C1232.17 149.432 1232.27 135.709 1232.54 121.654C1224.74 114.912 1216.29 111.562 1207.2 111.605C1203.39 111.623 1199.34 112.221 1195.05 113.398C1190.76 114.576 1186.72 116.661 1182.93 119.655C1179.3 122.483 1176.26 126.465 1173.81 131.602C1171.52 136.573 1170.39 143.026 1170.43 150.962ZM1363.02 226.691C1354.43 226.731 1345.99 225.283 1337.71 222.346C1329.59 219.408 1322.21 214.813 1315.57 208.561C1309.09 202.474 1303.93 194.811 1300.09 185.57C1296.24 176.164 1294.29 165.178 1294.23 152.613C1294.16 138.394 1296.25 126.15 1300.5 115.879C1304.92 105.442 1310.75 96.9002 1317.99 90.2527C1325.23 83.44 1333.31 78.3594 1342.22 75.0108C1351.14 71.6623 1360.06 69.967 1368.98 69.9251C1374.27 69.9003 1379.32 70.29 1384.12 71.0941C1388.92 71.7329 1393.38 72.704 1397.52 74.0072C1397.96 61.9357 1398.48 49.7811 1399.09 37.5435C1399.86 25.305 1400.71 13.2316 1401.65 1.32304L1443.32 3.85543C1442.06 17.5842 1440.98 32.3868 1440.06 48.2632C1439.14 63.9744 1438.47 80.015 1438.05 96.3852C1437.8 112.755 1437.71 128.71 1437.78 144.251C1437.85 158.8 1438.08 172.687 1438.47 185.912C1439.03 198.971 1439.67 210.872 1440.38 221.616L1397.49 225.041C1397.31 221.901 1397.21 218.842 1397.2 215.866C1392.42 219.03 1387.14 221.618 1381.36 223.629C1375.75 225.639 1369.64 226.66 1363.02 226.691ZM1334.14 150.194C1334.19 158.791 1335.87 165.562 1339.2 170.506C1342.53 175.285 1346.6 178.655 1351.4 180.617C1356.2 182.578 1360.84 183.549 1365.3 183.528C1370.59 183.503 1375.88 182.321 1381.16 179.981C1386.44 177.642 1391.38 173.568 1395.98 167.759C1395.97 165.776 1395.96 163.874 1395.95 162.056C1395.89 148.664 1395.99 134.94 1396.26 120.886C1388.45 114.144 1380.01 110.794 1370.91 110.837C1367.11 110.854 1363.06 111.452 1358.77 112.63C1354.48 113.807 1350.43 115.893 1346.65 118.887C1343.02 121.714 1339.98 125.697 1337.53 130.833C1335.23 135.804 1334.11 142.258 1334.14 150.194ZM1504.15 273.645L1466.86 253.98C1476.07 243.686 1485.03 233.062 1493.74 222.109C1502.45 211.321 1510.75 200.205 1518.63 188.76C1510.81 178.381 1502.99 167.257 1495.16 155.39C1487.33 143.357 1480.09 131.57 1473.42 120.027C1466.75 108.485 1461.33 98.1773 1457.15 89.1034L1496.75 71.5573C1499.77 79.4793 1503.61 88.0587 1508.28 97.2955C1513.12 106.532 1518.37 115.931 1524.04 125.494C1529.87 135.056 1535.86 144.204 1542.02 152.938C1559.74 123.921 1574.32 95.3321 1585.76 67.1714L1627.01 83.346C1619.64 97.5994 1611.28 112.932 1601.93 129.344C1592.75 145.59 1582.82 162.17 1572.15 179.085C1561.65 195.833 1550.65 212.253 1539.15 228.344C1527.66 244.601 1515.99 259.701 1504.15 273.645Z" fill="#080712"/>
</svg>
