<svg width="1857" height="352" viewBox="0 0 1857 352" fill="none" xmlns="http://www.w3.org/2000/svg">
<path d="M42.3856 150.707C42.4204 158.11 44.2417 165.01 47.8495 171.408C51.5802 177.683 56.4178 183.212 62.3621 187.996C68.306 192.656 75.1087 196.325 82.7705 199.004C90.4317 201.559 98.2718 202.817 106.291 202.779C108.758 202.768 111.287 202.571 113.876 202.189C116.464 201.683 118.804 200.87 120.896 199.75C122.989 198.63 124.709 197.203 126.058 195.469C127.406 193.612 128.074 191.327 128.062 188.613C128.037 183.431 126.163 178.32 122.438 173.279C118.836 168.238 114.063 163.263 108.118 158.356C102.172 153.326 95.3636 148.361 87.6915 143.462C80.0187 138.44 72.2229 133.48 64.304 128.582C56.385 123.684 48.5895 118.786 40.9173 113.887C33.2446 108.865 26.4357 103.9 20.4907 98.9931C14.5452 93.9627 9.70997 88.9271 5.98509 83.8863C2.38301 78.7215 0.5698 73.5483 0.545475 68.3667C0.522308 63.4319 1.73459 58.8613 4.18232 54.6551C6.75284 50.325 10.1273 46.4229 14.3057 42.9488C18.4841 39.4747 23.3428 36.3676 28.8817 33.6273C34.4207 30.8871 40.2084 28.5775 46.2449 26.6986C52.2814 24.8196 58.3202 23.4342 64.3613 22.5422C70.5252 21.5263 76.3831 21.0053 81.9347 20.9792C86.006 20.9601 90.4479 21.0626 95.2606 21.2868C100.196 21.387 104.763 21.9207 108.963 22.888C113.285 23.7313 116.869 25.0716 119.715 26.9089C122.561 28.7461 123.992 31.3919 124.009 34.8463C124.014 35.9566 123.835 37.3763 123.473 39.1052C123.111 40.7108 122.075 43.4299 120.366 47.2625C118.655 50.8483 116.632 53.5721 114.297 55.4336C112.084 57.1712 109.189 58.0485 105.612 58.0653C100.553 58.089 95.1841 57.559 89.5038 56.4753C83.9463 55.2677 78.33 54.6772 72.655 54.7038C69.5707 54.7183 66.4256 54.9181 63.2197 55.3033C60.1366 55.5645 57.3017 56.133 54.7149 57.0088C52.1276 57.7612 50.0358 58.943 48.4395 60.5544C46.8426 62.0424 46.0497 63.9584 46.0607 66.3024C46.0717 68.6465 47.7497 71.2911 51.0946 74.2364C54.5629 77.1811 59.0813 80.4293 64.6498 83.981C70.3416 87.5321 76.7754 91.4499 83.9512 95.7342C91.1264 99.8953 98.4268 104.426 105.852 109.326C113.4 114.102 120.765 119.249 127.947 124.767C135.128 130.162 141.509 135.931 147.089 142.073C152.793 148.092 157.326 154.486 160.689 161.256C164.175 168.025 165.935 175.049 165.969 182.328C166.011 191.21 164.012 199.054 159.973 205.859C155.934 212.663 150.717 218.363 144.323 222.958C137.929 227.552 130.851 230.978 123.089 233.236C115.328 235.616 107.746 236.824 100.344 236.859C92.8183 236.894 85.1649 236.005 77.3839 234.19C69.7268 232.499 62.3126 230.005 55.1415 226.707C47.9709 223.533 41.2289 219.679 34.9156 215.143C28.725 210.484 23.334 205.328 18.7427 199.674C14.1507 193.897 10.482 187.684 7.73658 181.035C5.11452 174.385 3.7864 167.421 3.75223 160.142C3.73775 157.057 3.90832 153.972 4.26396 150.886C4.74238 147.676 5.53126 144.897 6.6306 142.547C7.72936 140.075 9.26223 138.094 11.2292 136.604C13.1956 134.991 15.721 134.177 18.8052 134.163C19.7922 134.158 20.9031 134.276 22.138 134.517C23.3723 134.635 25.5339 135.18 28.6228 136.152C32.2058 137.246 35.3601 139.02 38.0859 141.474C40.9344 143.805 42.3677 146.883 42.3856 150.707ZM175.516 47.7438C175.453 34.4197 184.058 27.7172 201.33 27.6361C204.291 27.6222 206.886 28.4119 209.114 30.0053C211.342 31.5987 212.648 33.8133 213.031 36.6491C214.177 44.1695 215.199 51.6288 216.097 59.0271C216.996 66.4253 217.837 74.749 218.62 83.9984C219.527 93.1238 220.378 103.73 221.175 115.817C222.095 127.78 223.088 142.086 224.153 158.737C224.161 160.464 224.413 161.697 224.91 162.435C225.531 163.172 226.211 163.539 226.951 163.535C228.062 163.53 229.167 162.415 230.267 160.189C234.418 150.916 239.067 142.628 244.215 135.325C249.361 127.899 254.884 121.642 260.782 116.556C266.679 111.347 272.891 107.431 279.418 104.81C286.067 102.064 292.846 100.676 299.755 100.643C308.884 100.6 317.162 103.152 324.589 108.299C332.016 113.446 338.342 120.757 343.568 130.232C348.794 139.707 352.858 151.224 355.759 164.781C358.66 178.215 360.149 193.26 360.228 209.915C360.249 214.48 359.897 218.244 359.17 221.209C358.567 224.049 357.467 226.337 355.871 228.071C354.276 229.806 352.06 230.989 349.226 231.619C346.392 232.372 342.877 232.759 338.683 232.779C332.884 232.806 328.685 231.715 326.083 229.507C323.606 227.298 322.356 223.849 322.334 219.161C322.279 207.564 321.426 196.65 319.774 186.417C318.245 176.061 316.105 167.003 313.354 159.243C310.604 151.484 307.367 145.33 303.645 140.783C300.045 136.235 296.149 133.971 291.954 133.991C282.454 134.035 272.991 141.791 263.564 157.256C254.26 172.722 244.561 196.023 234.467 227.161C233.494 230.003 232.394 232.352 231.169 234.209C229.944 236.065 228.471 237.552 226.749 238.671C225.15 239.789 223.18 240.538 220.837 240.919C218.496 241.424 215.721 241.684 212.513 241.699C205.975 241.729 201.281 240.518 198.432 238.064C195.706 235.609 194.206 231.545 193.933 225.871C193.092 204.408 191.639 183.934 189.573 164.451C187.631 144.844 185.574 127.149 183.402 111.368C181.354 95.462 179.502 82.023 177.846 71.0505C176.314 59.9541 175.537 52.1852 175.516 47.7438ZM387.214 163.523C387.204 161.426 387.44 159.081 387.921 156.488C388.402 153.895 388.636 151.056 388.621 147.972C388.611 145.874 387.679 144.275 385.823 143.173C384.09 142.071 382.111 140.846 379.884 139.5C377.657 138.153 375.613 136.435 373.752 134.347C372.015 132.258 371.138 129.239 371.119 125.291C371.106 122.454 371.833 119.613 373.3 116.768C374.89 113.923 377.16 111.322 380.11 108.964C387.364 103.501 394.867 98.5927 402.619 94.2382C410.494 89.8832 418.311 86.207 426.07 83.2096C433.951 80.2116 441.713 77.8928 449.355 76.253C456.996 74.6133 464.333 73.7769 471.365 73.7439C483.209 73.6883 494.322 75.8569 504.706 80.2496C515.213 84.5183 524.309 90.4592 531.994 98.0723C539.802 105.561 545.95 114.416 550.44 124.634C555.052 134.729 557.385 145.575 557.44 157.172C557.493 168.522 555.138 179.329 550.375 189.591C545.734 199.729 539.422 208.642 531.439 216.329C523.456 224.015 514.046 230.105 503.21 234.597C492.498 239.212 481.159 241.548 469.192 241.604C457.472 241.659 446.606 239.736 436.594 235.835C426.583 231.934 417.921 226.546 410.61 219.672C403.298 212.674 397.584 204.435 393.468 194.954C389.352 185.35 387.267 174.873 387.214 163.523ZM473.107 208.275C478.288 208.25 483.65 207.177 489.192 205.053C494.734 202.93 499.778 199.884 504.324 195.914C508.993 191.821 512.794 186.868 515.728 181.056C518.785 175.243 520.297 168.697 520.262 161.418C520.228 154.016 518.838 147.113 516.094 140.711C513.35 134.308 509.561 128.774 504.727 124.109C500.017 119.319 494.386 115.583 487.834 112.899C481.406 110.215 474.429 108.891 466.904 108.926C453.209 108.991 442.74 112.618 435.494 119.807C428.249 126.874 424.66 137.747 424.729 152.429C424.767 160.448 425.974 167.906 428.35 174.804C430.849 181.578 434.27 187.484 438.612 192.522C442.953 197.436 448.029 201.299 453.841 204.109C459.776 206.919 466.198 208.307 473.107 208.275ZM699.321 144.292C699.229 124.8 701.503 109.799 706.142 99.2905C710.781 88.7819 717.48 83.5071 726.239 83.466C740.18 83.4005 747.207 95.3965 747.32 119.454C747.36 127.966 746.904 135.988 745.952 143.518C745.124 151.048 743.863 158.333 742.169 165.373C741.927 166.361 741.746 167.287 741.627 168.151C741.507 169.016 741.449 169.818 741.453 170.558C741.465 173.149 741.969 175.429 742.965 177.398C749.208 193.037 760.656 200.818 777.311 200.74C783.233 200.712 788.779 199.39 793.948 196.775C799.117 194.16 803.604 190.623 807.408 186.164C811.211 181.581 814.147 176.262 816.216 170.207C818.408 164.152 819.488 157.608 819.455 150.575C819.418 142.68 818.462 136.145 816.587 130.973C814.711 125.676 812.654 121.183 810.416 117.492C808.178 113.678 806.126 110.233 804.261 107.158C802.395 103.959 801.453 100.385 801.435 96.4373C801.426 94.5867 802.219 92.6707 803.813 90.6893C805.531 88.5839 807.619 86.6618 810.078 84.923C812.661 83.1836 815.43 81.7518 818.386 80.6276C821.465 79.5028 824.362 78.934 827.076 78.9212C830.654 78.9044 834.179 80.8619 837.652 84.7935C841.248 88.7246 844.418 93.8914 847.163 100.294C850.03 106.573 852.284 113.779 853.926 121.914C855.692 130.049 856.594 138.249 856.633 146.515C856.689 158.482 854.521 169.781 850.13 180.411C845.738 191.042 839.737 200.385 832.125 208.44C824.514 216.495 815.599 222.891 805.382 227.627C795.287 232.362 784.565 234.757 773.215 234.81C763.592 234.855 755.009 233.168 747.468 229.749C740.05 226.453 733.175 220.563 726.843 212.08C725.848 210.481 724.856 209.375 723.866 208.763C722.876 208.151 721.888 207.847 720.901 207.852C719.667 207.858 718.558 208.171 717.574 208.793C716.59 209.414 715.547 210.529 714.444 212.138C706.106 223.158 697.137 231.034 687.536 235.767C678.059 240.5 667.583 242.893 656.11 242.947C643.402 243.007 631.912 239.545 621.64 232.561C611.491 225.699 602.808 215.87 595.593 203.073C588.377 190.276 582.814 174.757 578.904 156.516C574.993 138.152 572.984 117.62 572.878 94.9194C572.834 85.6666 573.168 78.0159 573.88 71.9672C574.591 65.7952 575.926 60.9773 577.884 57.5137C579.841 53.9267 582.42 51.4471 585.621 50.0749C588.822 48.5794 592.951 47.8198 598.01 47.7961C603.315 47.7712 607.144 48.8018 609.498 50.8882C611.975 52.8505 613.225 56.2991 613.248 61.2339C613.266 65.0584 612.916 69.3782 612.198 74.1931C611.48 78.8847 611.129 82.9577 611.145 86.4121C611.229 104.301 612.54 120.765 615.078 135.805C617.74 150.844 621.317 163.781 625.809 174.617C630.425 185.452 635.831 193.878 642.028 199.894C648.348 205.91 655.271 208.9 662.797 208.865C679.575 208.786 691.934 200.154 699.872 182.967C700.606 181.607 701.094 180.371 701.335 179.259C701.576 178.024 701.694 176.728 701.687 175.371C701.684 174.631 701.68 173.891 701.677 173.151C701.673 172.287 701.545 171.362 701.294 170.377C700.655 165.691 700.141 161.252 699.751 157.059C699.484 152.743 699.34 148.487 699.321 144.292ZM899.26 238.845C897.179 216.154 894.483 193.713 891.171 171.521C887.983 149.328 884.115 126.954 879.568 104.398C879.191 102.92 878.692 101.75 878.071 100.889C877.572 99.9045 876.83 99.4145 875.843 99.4191C875.103 99.4226 874.239 99.4883 873.253 99.6163C872.39 99.7437 871.465 99.8098 870.478 99.8144C865.79 99.8364 862.145 98.6815 859.543 96.3496C856.941 94.0177 855.632 91.0629 855.615 87.4851C855.596 83.4139 857.243 79.4582 860.556 75.618C863.993 71.7773 868.479 68.1784 874.015 64.8213C879.55 61.3409 885.889 58.1651 893.032 55.294C900.174 52.4228 907.503 49.9826 915.019 47.9734C922.659 45.8402 930.177 44.201 937.574 43.0559C944.97 41.7875 951.691 41.139 957.736 41.1107C968.716 41.0591 978.16 42.3719 986.069 45.049C994.101 47.7255 1000.66 51.2726 1005.74 55.6902C1010.94 60.1072 1014.72 65.2094 1017.1 70.9969C1019.59 76.7837 1020.85 82.7614 1020.88 88.93C1020.91 95.0985 1019.59 101.89 1016.91 109.305C1014.35 116.596 1009.94 123.588 1003.68 130.279C1002.94 131.146 1002.45 131.889 1002.21 132.507C1001.97 133.002 1001.84 133.557 1001.85 134.174C1001.85 135.284 1003.09 136.019 1005.56 136.377C1012.72 136.961 1019.63 138.655 1026.31 141.462C1033.11 144.267 1039.05 147.941 1044.13 152.482C1049.21 156.899 1053.3 162.123 1056.41 168.154C1059.53 174.185 1061.1 180.593 1061.13 187.378C1061.18 196.878 1059.36 205.214 1055.7 212.387C1052.15 219.436 1047.18 225.32 1040.79 230.038C1034.4 234.756 1026.76 238.246 1017.89 240.509C1009.14 242.894 999.649 244.11 989.409 244.159C981.39 244.196 973.306 243.494 965.157 242.052C957.131 240.732 949.289 238.98 941.629 236.795C941.135 236.551 940.394 236.431 939.407 236.436C937.31 236.446 935.65 237.687 934.428 240.16C932.35 244.365 929.343 247.648 925.406 250.011C921.592 252.373 917.712 253.563 913.764 253.582C910.186 253.598 907.035 252.441 904.309 250.11C901.585 247.902 899.902 244.147 899.26 238.845ZM934.83 168.17C932.12 169.169 930.772 171.088 930.786 173.926C930.787 174.296 930.917 175.652 931.175 177.995C931.556 180.337 932 182.865 932.506 185.576C933.014 188.782 933.586 192.234 934.22 195.932C934.605 199.138 936.28 201.104 939.244 201.83C943.074 202.922 947.274 204.075 951.845 205.287C956.415 206.376 961.169 207.402 966.109 208.366C971.048 209.33 976.049 210.108 981.11 210.702C986.171 211.295 991.045 211.58 995.734 211.558C999.311 211.541 1002.76 211.155 1006.09 210.399C1009.42 209.52 1012.37 208.211 1014.96 206.471C1017.54 204.732 1019.56 202.563 1021.03 199.966C1022.62 197.244 1023.41 193.971 1023.39 190.146C1023.37 184.595 1021.8 179.914 1018.7 176.104C1015.6 172.294 1011.7 169.228 1007 166.906C1002.3 164.584 997.171 162.942 991.615 161.981C986.058 160.897 980.812 160.366 975.877 160.39C969.215 160.421 962.433 161.193 955.531 162.706C948.753 164.218 941.852 166.039 934.83 168.17ZM920.166 79.9647C918.811 80.3412 917.764 80.7779 917.026 81.2749C916.288 81.7718 915.923 82.6989 915.929 84.0559C915.935 85.413 916.194 87.8793 916.704 91.4547C917.337 94.9062 918.034 98.8509 918.795 103.289C919.68 107.726 920.565 112.348 921.451 117.156C922.46 121.839 923.344 126.092 924.102 129.913C924.36 132.255 924.861 133.857 925.605 134.717C926.473 135.577 927.523 136.004 928.757 135.998C929.497 135.994 930.422 135.867 931.531 135.615C932.763 135.239 934.365 134.738 936.336 134.112C941.386 132.484 946.683 130.67 952.225 128.67C957.891 126.546 962.999 124.055 967.55 121.196C972.225 118.336 976.034 114.987 978.977 111.149C982.043 107.187 983.563 102.615 983.539 97.433C983.52 93.3618 982.64 89.9731 980.9 87.2671C979.16 84.4376 976.743 82.1666 973.651 80.4539C970.558 78.6178 966.974 77.3392 962.899 76.6181C958.825 75.8969 954.382 75.5477 949.57 75.5703C944.635 75.5934 939.641 75.987 934.586 76.751C929.654 77.5144 924.848 78.5856 920.166 79.9647ZM1108.36 156.066C1108.44 172.598 1111.03 185.355 1116.13 194.338C1121.23 203.32 1128.59 207.788 1138.21 207.743C1144.26 207.715 1149.8 205.9 1154.84 202.298C1160.01 198.696 1164.42 193.679 1168.1 187.246C1171.77 180.814 1174.57 173.213 1176.5 164.444C1178.56 155.552 1179.56 145.924 1179.51 135.561C1179.48 129.269 1179.21 123.842 1178.7 119.279C1178.18 114.594 1177.61 110.463 1176.97 106.888C1176.46 103.19 1175.95 99.9225 1175.45 97.0873C1174.94 94.2521 1174.68 91.5391 1174.67 88.9483C1174.65 85.0004 1176.3 82.1551 1179.62 80.4122C1182.95 78.546 1188.25 77.5958 1195.53 77.5617C1204.78 77.5182 1211.94 79.5819 1217.02 83.7528C1222.22 87.9231 1224.84 94.0178 1224.88 102.037C1224.98 123.874 1222.92 143.5 1218.68 160.915C1214.57 178.33 1208.53 193.164 1200.57 205.415C1192.73 217.542 1183.15 226.902 1171.83 233.494C1160.51 240.086 1147.82 243.415 1133.75 243.481C1123.76 243.528 1114.5 241.474 1105.97 237.319C1097.56 233.287 1090.25 227.585 1084.05 220.212C1077.97 212.714 1073.18 203.854 1069.67 193.63C1066.17 183.283 1064.39 171.941 1064.33 159.604C1064.31 154.916 1064.41 149.919 1064.63 144.613C1064.85 139.307 1065.2 133.63 1065.66 127.582C1066.13 121.412 1066.71 114.747 1067.42 107.588C1068.25 100.428 1069.14 92.6514 1070.09 84.2575C1070.44 80.678 1072.09 77.8327 1075.04 75.7215C1078.12 73.4863 1082 72.3577 1086.68 72.3357C1090.88 72.316 1094.83 72.7293 1098.53 73.5755C1102.24 74.4218 1105.39 75.579 1107.99 77.0473C1110.71 78.515 1112.82 80.2324 1114.31 82.1993C1115.92 84.1657 1116.73 86.2593 1116.74 88.48C1116.75 90.7006 1116.27 94.219 1115.31 99.0351C1114.47 103.727 1113.51 109.16 1112.43 115.334C1111.47 121.384 1110.51 127.989 1109.56 135.149C1108.73 142.185 1108.33 149.158 1108.36 156.066ZM1371 85.0656C1371.49 85.31 1372.23 85.4299 1373.22 85.4253C1375.93 85.4126 1377.28 83.6173 1377.27 80.0396L1377 22.487C1376.96 15.2081 1378.54 10.019 1381.73 6.91963C1385.05 3.81971 1390.53 2.2518 1398.18 2.21589C1405.96 2.17941 1411.45 3.75746 1414.68 6.95005C1417.9 10.1426 1419.53 15.6251 1419.56 23.3975C1419.58 26.3584 1419.41 30.7389 1419.07 36.5391C1418.73 42.2159 1418.33 48.6949 1417.87 55.9761C1417.53 63.2568 1417.2 71.0926 1416.87 79.4835C1416.54 87.7511 1416.39 95.9562 1416.43 104.099C1416.49 116.683 1417.4 127.535 1419.17 136.656C1420.94 145.778 1423.44 153.354 1426.68 159.384C1429.92 165.29 1433.76 169.714 1438.22 172.654C1442.67 175.471 1447.67 176.866 1453.23 176.84C1456.31 176.825 1459.08 176.442 1461.55 175.69C1464.13 174.815 1467.16 174.369 1470.61 174.352C1473.08 174.341 1475.12 175.627 1476.73 178.21C1478.47 180.669 1479.35 183.688 1479.37 187.266C1479.38 190.473 1478.41 193.5 1476.45 196.347C1474.61 199.193 1472.03 201.673 1468.71 203.786C1465.51 205.898 1461.76 207.581 1457.45 208.835C1453.13 209.966 1448.63 210.542 1443.95 210.564C1433.83 210.612 1424.56 207.571 1416.14 201.442C1407.73 195.189 1401.39 185.658 1397.13 172.847C1396.75 170.875 1396.13 169.89 1395.27 169.895C1394.28 169.899 1393.48 170.89 1392.88 172.867C1389.59 181.888 1385.25 190.051 1379.85 197.356C1374.58 204.536 1368.38 210.734 1361.25 215.949C1354.24 221.04 1346.49 224.963 1337.99 227.717C1329.61 230.471 1320.73 231.87 1311.36 231.914C1301.49 231.96 1292.41 230.337 1284.13 227.045C1275.97 223.875 1268.92 219.405 1262.97 213.635C1257.02 207.741 1252.36 200.854 1248.99 192.974C1245.63 184.97 1243.92 176.342 1243.88 167.089C1243.82 155.245 1246.24 144.069 1251.12 133.559C1256.01 123.049 1262.63 113.889 1270.98 106.077C1279.45 98.1412 1289.29 91.8646 1300.5 87.2472C1311.71 82.6297 1323.66 80.2912 1336.37 80.2315C1341.55 80.2072 1347.04 80.6132 1352.84 81.4496C1358.65 82.1626 1364.7 83.368 1371 85.0656ZM1318.42 198.57C1325.45 198.537 1331.67 196.965 1337.09 193.855C1342.62 190.745 1347.48 186.836 1351.65 182.128C1355.95 177.296 1359.56 172.036 1362.5 166.347C1365.43 160.535 1367.81 154.91 1369.63 149.473C1371.46 144.036 1372.79 139.157 1373.64 134.835C1374.48 130.512 1374.9 127.426 1374.89 125.576C1374.88 124.219 1374.51 123.048 1373.76 122.065C1373.02 120.958 1371.9 120.1 1370.42 119.49C1367.08 118.642 1363.63 117.918 1360.05 117.318C1356.46 116.594 1352.95 115.994 1349.49 115.517C1346.03 115.039 1342.7 114.685 1339.49 114.453C1336.41 114.221 1333.57 114.111 1330.98 114.123C1323.57 114.158 1316.86 115.3 1310.82 117.549C1304.79 119.798 1299.62 122.968 1295.32 127.06C1291.14 131.15 1287.9 136.039 1285.58 141.725C1283.26 147.288 1282.12 153.4 1282.15 160.062C1282.18 165.984 1283.07 171.347 1284.82 176.15C1286.69 180.829 1289.18 184.827 1292.28 188.144C1295.5 191.46 1299.34 194.033 1303.79 195.862C1308.24 197.692 1313.11 198.594 1318.42 198.57ZM1593.07 84.0231C1593.56 84.2675 1594.3 84.3874 1595.29 84.3828C1598 84.3701 1599.35 82.5748 1599.33 78.997L1599.06 21.4445C1599.03 14.1656 1600.61 8.97645 1603.8 5.87712C1607.12 2.7772 1612.6 1.20929 1620.25 1.17338C1628.02 1.1369 1633.52 2.71495 1636.74 5.90754C1639.97 9.10012 1641.6 14.5826 1641.63 22.355C1641.65 25.3159 1641.48 29.6964 1641.14 35.4966C1640.8 41.1734 1640.39 47.6524 1639.93 54.9336C1639.6 62.2143 1639.27 70.05 1638.93 78.441C1638.6 86.7086 1638.46 94.9137 1638.49 103.056C1638.55 115.64 1639.47 126.493 1641.24 135.614C1643.01 144.735 1645.51 152.311 1648.75 158.341C1651.98 164.248 1655.83 168.671 1660.28 171.611C1664.74 174.428 1669.74 175.823 1675.29 175.797C1678.38 175.783 1681.15 175.4 1683.62 174.648C1686.2 173.772 1689.22 173.326 1692.68 173.31C1695.14 173.298 1697.19 174.584 1698.8 177.167C1700.54 179.627 1701.42 182.645 1701.44 186.223C1701.45 189.431 1700.48 192.458 1698.52 195.305C1696.68 198.151 1694.1 200.63 1690.78 202.743C1687.58 204.856 1683.83 206.539 1679.51 207.793C1675.2 208.924 1670.7 209.5 1666.01 209.522C1655.9 209.569 1646.63 206.529 1638.21 200.399C1629.79 194.147 1623.46 184.615 1619.2 171.804C1618.82 169.832 1618.2 168.848 1617.34 168.852C1616.35 168.857 1615.55 169.847 1614.94 171.824C1611.66 180.846 1607.31 189.009 1601.92 196.313C1596.65 203.494 1590.45 209.692 1583.32 214.907C1576.31 219.998 1568.55 223.921 1560.05 226.675C1551.68 229.428 1542.8 230.827 1533.43 230.871C1523.56 230.917 1514.48 229.295 1506.2 226.002C1498.04 222.833 1490.99 218.363 1485.04 212.592C1479.09 206.698 1474.43 199.811 1471.06 191.931C1467.69 183.928 1465.99 175.299 1465.94 166.047C1465.89 154.203 1468.3 143.026 1473.19 132.517C1478.07 122.007 1484.69 112.846 1493.05 105.034C1501.52 97.0987 1511.36 90.8221 1522.57 86.2047C1533.77 81.5872 1545.73 79.2487 1558.44 79.189C1563.62 79.1647 1569.11 79.5707 1574.91 80.4071C1580.71 81.1201 1586.77 82.3255 1593.07 84.0231ZM1540.49 197.527C1547.52 197.494 1553.74 195.923 1559.16 192.813C1564.69 189.703 1569.55 185.793 1573.72 181.086C1578.02 176.254 1581.63 170.994 1584.56 165.305C1587.5 159.492 1589.88 153.868 1591.7 148.431C1593.53 142.994 1594.86 138.114 1595.71 133.792C1596.55 129.47 1596.97 126.384 1596.96 124.533C1596.95 123.176 1596.58 122.006 1595.83 121.022C1595.08 119.915 1593.97 119.057 1592.49 118.447C1589.15 117.599 1585.69 116.875 1582.11 116.275C1578.53 115.552 1575.01 114.951 1571.56 114.474C1568.1 113.997 1564.77 113.642 1561.56 113.411C1558.47 113.178 1555.63 113.068 1553.04 113.08C1545.64 113.115 1538.92 114.257 1532.89 116.506C1526.85 118.755 1521.69 121.926 1517.39 126.017C1513.21 130.108 1509.97 134.996 1507.65 140.683C1505.33 146.245 1504.19 152.358 1504.22 159.02C1504.25 164.941 1505.14 170.304 1506.88 175.107C1508.76 179.787 1511.24 183.785 1514.34 187.101C1517.57 190.417 1521.4 192.99 1525.85 194.82C1530.3 196.65 1535.18 197.552 1540.49 197.527ZM1769.16 223.472C1761.76 223.507 1754.34 221.753 1746.93 218.21C1739.51 214.544 1732.39 209.58 1725.57 203.32C1718.76 197.06 1712.43 189.688 1706.59 181.202C1700.75 172.593 1695.65 163.364 1691.29 153.515C1686.92 143.542 1683.48 133.133 1680.96 122.288C1678.45 111.443 1677.16 100.592 1677.11 89.7356C1677.07 81.3463 1678.77 75.3547 1682.21 71.7607C1685.64 68.0434 1691.25 66.1665 1699.02 66.13C1708.77 66.0842 1714.21 70.0683 1715.36 78.0822C1717.66 95.097 1720.82 110.442 1724.83 124.118C1728.84 137.794 1733.53 149.43 1738.88 159.028C1744.35 168.626 1750.37 176 1756.93 181.151C1763.62 186.301 1770.66 188.859 1778.06 188.824C1783.37 188.799 1788.36 187.48 1793.03 184.868C1797.71 182.132 1801.76 178.35 1805.2 173.522C1806.42 171.666 1807.21 169.873 1807.58 168.144C1808.06 166.414 1808.42 164.439 1808.66 162.217C1809.23 153.455 1809.87 144.877 1810.57 136.485C1811.4 127.968 1812.16 119.452 1812.86 110.935C1813.09 107.233 1813.57 104.208 1814.3 101.861C1815.03 99.5132 1816.13 97.6574 1817.6 96.2934C1819.08 94.9293 1820.98 93.9951 1823.33 93.4906C1825.79 92.9855 1828.87 92.7243 1832.57 92.7069C1836.77 92.6872 1840.35 93.2873 1843.32 94.5071C1846.28 95.6035 1848.7 97.5045 1850.56 100.21C1852.42 102.792 1853.74 106.24 1854.5 110.555C1855.38 114.745 1855.84 119.987 1855.87 126.279C1855.89 131.707 1855.48 136.459 1854.64 140.534C1853.91 144.485 1853.01 148.253 1851.91 151.836C1850.94 155.295 1849.97 158.754 1849 162.213C1848.15 165.548 1847.62 169.251 1847.39 173.324C1846.82 183.567 1846.31 192.452 1845.85 199.98C1845.39 207.384 1844.99 213.74 1844.64 219.047C1844.42 224.353 1844.19 228.919 1843.97 232.744C1843.86 236.569 1843.75 239.963 1843.64 242.924C1843.53 246.009 1843.49 248.909 1843.5 251.623C1843.51 254.337 1843.53 257.298 1843.54 260.505C1843.57 266.304 1843.84 272.595 1844.37 279.378C1844.9 286.284 1845.42 292.882 1845.94 299.172C1846.59 305.461 1847.17 311.01 1847.69 315.819C1848.2 320.628 1848.47 323.958 1848.47 325.809C1848.49 328.153 1847.76 330.377 1846.28 332.481C1844.81 334.585 1842.85 336.445 1840.39 338.061C1837.93 339.676 1835.04 340.923 1831.71 341.803C1828.38 342.805 1824.87 343.315 1821.17 343.333C1817.96 343.348 1815.36 342.249 1813.38 340.038C1811.52 337.949 1810.46 335.117 1810.19 331.54C1809.8 326.854 1809.47 321.119 1809.19 314.334C1808.91 307.673 1808.63 300.519 1808.35 292.871C1808.06 285.347 1807.84 277.637 1807.68 269.742C1807.65 261.969 1807.55 254.691 1807.4 247.906C1807.24 241.244 1807.15 235.385 1807.13 230.326C1807.1 225.268 1807.09 221.629 1807.08 219.408C1807.07 217.187 1806.81 215.646 1806.31 214.785C1805.82 213.801 1804.89 213.311 1803.53 213.318C1802.79 213.321 1801.81 213.573 1800.57 214.072C1799.34 214.448 1797.93 215.133 1796.33 216.127C1792.02 218.739 1787.65 220.61 1783.21 221.741C1778.78 222.872 1774.09 223.449 1769.16 223.472Z" fill="white"/>
</svg>
