<svg width="1647" height="313" viewBox="0 0 1647 313" fill="none" xmlns="http://www.w3.org/2000/svg">
<path d="M38.2775 133.684C38.3083 140.246 39.923 146.364 43.1215 152.036C46.4289 157.599 50.7176 162.501 55.9876 166.742C61.257 170.873 67.288 174.126 74.0805 176.5C80.8724 178.766 87.8231 179.881 94.9324 179.848C97.1198 179.838 99.3612 179.663 101.657 179.324C103.951 178.876 106.026 178.155 107.881 177.162C109.736 176.169 111.261 174.904 112.457 173.367C113.652 171.721 114.244 169.695 114.233 167.288C114.211 162.695 112.55 158.163 109.247 153.695C106.054 149.225 101.823 144.815 96.5522 140.465C91.2812 136.005 85.2448 131.604 78.4431 127.261C71.6409 122.808 64.7295 118.411 57.7091 114.069C50.6886 109.727 43.7775 105.384 36.9758 101.041C30.1736 96.5886 24.1372 92.1872 18.8668 87.8368C13.5958 83.3772 9.30914 78.9129 6.00687 74.4439C2.81347 69.8651 1.20598 65.2789 1.18441 60.6852C1.16388 56.3102 2.23862 52.2583 4.40863 48.5293C6.68751 44.6904 9.67912 41.231 13.3835 38.1511C17.0878 35.0712 21.3952 32.3166 26.3057 29.8872C31.2163 27.4579 36.3473 25.4103 41.6989 23.7446C47.0506 22.0788 52.4042 20.8505 57.7599 20.0598C63.2245 19.1591 68.4177 18.6972 73.3396 18.6741C76.9489 18.6572 80.8869 18.7481 85.1535 18.9468C89.5289 19.0356 93.5781 19.5088 97.3009 20.3663C101.133 21.114 104.31 22.3022 106.833 23.931C109.357 25.5598 110.625 27.9054 110.64 30.9679C110.644 31.9523 110.486 33.2108 110.165 34.7436C109.844 36.167 108.926 38.5776 107.41 41.9754C105.894 45.1544 104.101 47.5691 102.03 49.2195C100.069 50.7599 97.5019 51.5376 94.3301 51.5525C89.8457 51.5736 85.0857 51.1037 80.0499 50.143C75.1229 49.0723 70.1438 48.5488 65.1126 48.5724C62.3783 48.5853 59.59 48.7624 56.7478 49.1039C54.0145 49.3355 51.5012 49.8395 49.208 50.6159C46.9142 51.2829 45.0597 52.3307 43.6446 53.7592C42.2289 55.0784 41.5259 56.777 41.5356 58.8551C41.5454 60.9332 43.033 63.2778 45.9984 65.8889C49.0732 68.4995 53.0789 71.3792 58.0157 74.5279C63.0617 77.6761 68.7656 81.1494 75.1273 84.9477C81.4884 88.6366 87.9604 92.6532 94.5434 96.9973C101.235 101.232 107.765 105.795 114.131 110.687C120.498 115.469 126.154 120.584 131.102 126.029C136.158 131.365 140.177 137.034 143.159 143.035C146.249 149.036 147.81 155.264 147.84 161.717C147.877 169.591 146.105 176.545 142.524 182.578C138.943 188.61 134.318 193.663 128.65 197.737C122.981 201.81 116.706 204.848 109.825 206.849C102.944 208.959 96.2225 210.03 89.6601 210.061C82.9883 210.092 76.2032 209.303 69.305 207.695C62.5166 206.196 55.9437 203.984 49.5861 201.061C43.2291 198.247 37.2521 194.83 31.655 190.809C26.1668 186.679 21.3875 182.107 17.317 177.095C13.2461 171.974 9.9936 166.465 7.55965 160.57C5.23507 154.675 4.05763 148.501 4.02734 142.048C4.0145 139.313 4.16573 136.578 4.48101 133.842C4.90516 130.997 5.60454 128.532 6.57914 126.45C7.55324 124.258 8.9122 122.501 10.656 121.18C12.3993 119.75 14.6381 119.029 17.3725 119.016C18.2475 119.012 19.2324 119.117 20.3271 119.33C21.4214 119.435 23.3377 119.918 26.0762 120.78C29.2526 121.749 32.0491 123.322 34.4656 125.498C36.991 127.565 38.2616 130.293 38.2775 133.684ZM156.303 42.4021C156.248 30.5897 163.876 24.6476 179.189 24.5757C181.814 24.5634 184.114 25.2635 186.089 26.6761C188.065 28.0888 189.222 30.0521 189.562 32.5662C190.578 39.2333 191.484 45.8463 192.28 52.4052C193.077 58.964 193.822 66.3434 194.517 74.5434C195.321 82.6334 196.076 92.0362 196.782 102.752C197.598 113.357 198.478 126.041 199.422 140.802C199.429 142.334 199.653 143.426 200.094 144.08C200.644 144.734 201.247 145.059 201.903 145.056C202.887 145.052 203.867 144.063 204.842 142.089C208.522 133.869 212.644 126.521 217.208 120.047C221.771 113.463 226.666 107.916 231.895 103.407C237.124 98.7889 242.631 95.3177 248.417 92.9937C254.312 90.5597 260.322 89.3284 266.447 89.2996C274.54 89.2616 281.879 91.5241 288.463 96.0869C295.047 100.65 300.656 107.131 305.289 115.532C309.922 123.932 313.525 134.142 316.097 146.161C318.669 158.071 319.989 171.409 320.058 186.174C320.077 190.221 319.765 193.558 319.121 196.186C318.586 198.704 317.611 200.733 316.196 202.27C314.782 203.808 312.818 204.857 310.305 205.415C307.792 206.083 304.677 206.426 300.958 206.444C295.817 206.468 292.094 205.501 289.788 203.543C287.591 201.584 286.483 198.527 286.464 194.371C286.415 184.09 285.659 174.413 284.194 165.342C282.839 156.161 280.942 148.131 278.503 141.251C276.065 134.372 273.195 128.917 269.895 124.885C266.704 120.853 263.249 118.846 259.531 118.864C251.109 118.903 242.719 125.779 234.362 139.49C226.113 153.201 217.515 173.858 208.566 201.463C207.703 203.983 206.729 206.066 205.643 207.711C204.556 209.357 203.25 210.676 201.724 211.667C200.306 212.658 198.559 213.323 196.483 213.661C194.407 214.108 191.947 214.338 189.103 214.352C183.306 214.379 179.145 213.305 176.619 211.129C174.203 208.953 172.873 205.35 172.631 200.319C171.885 181.291 170.597 163.141 168.766 145.868C167.044 128.485 165.22 112.799 163.295 98.8074C161.479 84.7064 159.837 72.7921 158.369 63.0645C157.01 53.227 156.322 46.3395 156.303 42.4021ZM343.983 145.046C343.974 143.186 344.183 141.107 344.61 138.808C345.036 136.509 345.243 133.993 345.23 131.258C345.222 129.399 344.395 127.981 342.75 127.004C341.214 126.027 339.459 124.942 337.484 123.748C335.51 122.554 333.698 121.031 332.049 119.179C330.509 117.327 329.73 114.651 329.714 111.151C329.702 108.636 330.347 106.117 331.647 103.595C333.057 101.073 335.07 98.7666 337.685 96.6762C344.116 91.8334 350.767 87.4819 357.64 83.6214C364.622 79.7605 371.552 76.5014 378.43 73.844C385.418 71.1862 392.299 69.1304 399.073 67.6767C405.848 66.2231 412.352 65.4816 418.586 65.4523C429.086 65.403 438.939 67.3255 448.145 71.2199C457.46 75.0043 465.524 80.2712 472.337 87.0205C479.259 93.66 484.71 101.509 488.69 110.569C492.779 119.519 494.847 129.134 494.895 139.415C494.943 149.478 492.855 159.058 488.632 168.156C484.518 177.144 478.922 185.045 471.844 191.86C464.767 198.674 456.425 204.073 446.819 208.056C437.322 212.147 427.269 214.218 416.66 214.268C406.269 214.316 396.636 212.612 387.761 209.153C378.885 205.695 371.206 200.918 364.724 194.824C358.242 188.62 353.176 181.315 349.528 172.91C345.878 164.396 344.03 155.108 343.983 145.046ZM420.131 184.72C424.724 184.698 429.478 183.746 434.391 181.864C439.304 179.981 443.776 177.281 447.806 173.762C451.945 170.133 455.315 165.742 457.916 160.589C460.626 155.436 461.966 149.632 461.936 143.179C461.905 136.617 460.673 130.498 458.241 124.821C455.808 119.145 452.449 114.239 448.164 110.103C443.987 105.857 438.995 102.544 433.187 100.165C427.488 97.7859 421.303 96.6118 414.631 96.6431C402.491 96.7001 393.209 99.9156 386.786 106.29C380.362 112.554 377.18 122.194 377.242 135.21C377.275 142.319 378.345 148.931 380.452 155.046C382.668 161.052 385.7 166.287 389.549 170.754C393.398 175.111 397.898 178.535 403.051 181.027C408.312 183.517 414.006 184.749 420.131 184.72ZM620.679 127.996C620.598 110.715 622.614 97.4167 626.726 88.1004C630.839 78.7842 636.778 74.1078 644.543 74.0713C656.903 74.0133 663.132 84.6482 663.232 105.976C663.268 113.523 662.864 120.634 662.02 127.31C661.286 133.986 660.168 140.444 658.666 146.686C658.451 147.562 658.291 148.383 658.185 149.149C658.079 149.915 658.028 150.626 658.031 151.282C658.042 153.579 658.489 155.601 659.372 157.346C664.906 171.211 675.056 178.109 689.821 178.04C695.071 178.015 699.987 176.843 704.57 174.525C709.153 172.207 713.131 169.071 716.503 165.117C719.874 161.055 722.477 156.339 724.312 150.971C726.255 145.603 727.212 139.801 727.183 133.567C727.15 126.567 726.303 120.774 724.64 116.188C722.978 111.493 721.154 107.509 719.17 104.237C717.186 100.856 715.367 97.8016 713.713 95.075C712.059 92.239 711.224 89.071 711.207 85.571C711.2 83.9304 711.903 82.2318 713.316 80.4751C714.839 78.6086 716.69 76.9045 718.871 75.363C721.16 73.821 723.615 72.5517 726.236 71.555C728.965 70.5578 731.533 70.0535 733.94 70.0422C737.111 70.0274 740.237 71.7627 743.316 75.2483C746.504 78.7334 749.315 83.314 751.747 88.9901C754.289 94.5564 756.288 100.945 757.744 108.157C759.309 115.369 760.109 122.639 760.143 129.967C760.193 140.576 758.271 150.593 754.378 160.018C750.484 169.442 745.164 177.725 738.416 184.866C731.668 192.007 723.765 197.677 714.707 201.876C705.758 206.074 696.252 208.197 686.189 208.244C677.658 208.285 670.05 206.789 663.363 203.758C656.787 200.836 650.692 195.614 645.079 188.094C644.197 186.676 643.317 185.696 642.44 185.153C641.562 184.61 640.686 184.341 639.811 184.345C638.717 184.35 637.734 184.628 636.862 185.179C635.989 185.73 635.064 186.719 634.087 188.145C626.695 197.914 618.743 204.897 610.232 209.093C601.829 213.289 592.542 215.411 582.371 215.459C571.105 215.511 560.919 212.442 551.811 206.25C542.814 200.167 535.117 191.454 528.72 180.108C522.323 168.763 517.391 155.005 513.924 138.834C510.457 122.553 508.676 104.35 508.582 84.2253C508.543 76.0223 508.84 69.2396 509.471 63.8772C510.101 58.4054 511.284 54.1342 513.02 51.0635C514.755 47.8835 517.042 45.6852 519.88 44.4687C522.717 43.1429 526.378 42.4695 530.862 42.4484C535.566 42.4263 538.96 43.3401 541.047 45.1897C543.243 46.9294 544.351 49.9867 544.372 54.3617C544.388 57.7523 544.077 61.5819 543.441 65.8506C542.804 70.0098 542.493 73.6207 542.508 76.6832C542.582 92.5424 543.744 107.139 545.995 120.472C548.354 133.805 551.525 145.274 555.508 154.881C559.6 164.487 564.393 171.956 569.887 177.29C575.49 182.623 581.627 185.274 588.299 185.243C603.174 185.173 614.13 177.52 621.168 162.284C621.819 161.077 622.251 159.982 622.465 158.996C622.679 157.901 622.783 156.753 622.777 155.549C622.774 154.893 622.771 154.237 622.768 153.581C622.764 152.815 622.651 151.995 622.428 151.121C621.862 146.968 621.406 143.032 621.06 139.315C620.824 135.488 620.697 131.715 620.679 127.996ZM797.934 211.822C796.089 191.705 793.699 171.81 790.763 152.136C787.936 132.461 784.507 112.626 780.476 92.6287C780.141 91.3178 779.699 90.2808 779.149 89.5177C778.707 88.6448 778.049 88.2104 777.174 88.2145C776.518 88.2176 775.752 88.2758 774.878 88.3893C774.113 88.5023 773.293 88.5608 772.418 88.5649C768.261 88.5844 765.03 87.5605 762.723 85.4932C760.417 83.4259 759.256 80.8063 759.241 77.6345C759.224 74.0251 760.684 70.5183 763.621 67.1138C766.668 63.7088 770.645 60.5183 775.553 57.5421C780.461 54.4565 786.08 51.641 792.412 49.0956C798.744 46.5503 805.242 44.3869 811.905 42.6056C818.678 40.7144 825.343 39.2612 831.901 38.2461C838.458 37.1215 844.416 36.5467 849.776 36.5215C859.51 36.4758 867.883 37.6397 874.894 40.013C882.014 42.3859 887.826 45.5305 892.329 49.4469C896.941 53.3628 900.298 57.8861 902.401 63.0169C904.612 68.1472 905.731 73.4467 905.757 78.9154C905.782 84.3841 904.607 90.4053 902.232 96.9791C899.965 103.443 896.057 109.641 890.507 115.573C889.854 116.342 889.42 117 889.203 117.548C888.987 117.987 888.88 118.479 888.882 119.026C888.887 120.011 889.984 120.662 892.173 120.98C898.519 121.497 904.651 122.999 910.569 125.487C916.596 127.974 921.862 131.231 926.365 135.257C930.868 139.173 934.499 143.805 937.258 149.151C940.018 154.498 941.412 160.179 941.44 166.194C941.48 174.616 939.874 182.006 936.622 188.365C933.48 194.615 929.074 199.831 923.406 204.014C917.739 208.197 910.972 211.291 903.106 213.297C895.35 215.411 886.933 216.49 877.855 216.532C870.746 216.566 863.579 215.943 856.354 214.664C849.239 213.495 842.287 211.941 835.496 210.005C835.058 209.788 834.401 209.682 833.526 209.686C831.667 209.694 830.195 210.795 829.112 212.988C827.27 216.715 824.604 219.626 821.113 221.721C817.733 223.815 814.292 224.87 810.792 224.886C807.62 224.901 804.827 223.875 802.411 221.808C799.995 219.851 798.503 216.522 797.934 211.822ZM829.468 149.165C827.066 150.051 825.871 151.752 825.883 154.268C825.884 154.596 825.999 155.799 826.228 157.876C826.566 159.952 826.959 162.193 827.408 164.597C827.859 167.438 828.365 170.499 828.928 173.777C829.269 176.619 830.754 178.362 833.382 179.006C836.777 179.975 840.501 180.996 844.553 182.071C848.604 183.036 852.819 183.946 857.198 184.801C861.577 185.655 866.01 186.345 870.497 186.871C874.984 187.397 879.306 187.65 883.462 187.631C886.634 187.616 889.695 187.273 892.645 186.603C895.594 185.824 898.214 184.663 900.503 183.121C902.793 181.579 904.589 179.656 905.891 177.353C907.301 174.94 907.998 172.039 907.982 168.648C907.959 163.726 906.573 159.577 903.822 156.199C901.072 152.821 897.614 150.103 893.448 148.044C889.282 145.986 884.736 144.53 879.81 143.679C874.884 142.717 870.233 142.247 865.858 142.267C859.952 142.295 853.94 142.98 847.821 144.321C841.811 145.662 835.694 147.276 829.468 149.165ZM816.468 70.9673C815.267 71.3011 814.339 71.6883 813.685 72.1288C813.03 72.5694 812.706 73.3913 812.712 74.5944C812.717 75.7975 812.946 77.9839 813.399 81.1537C813.96 84.2136 814.578 87.7108 815.253 91.6451C816.037 95.579 816.822 99.6769 817.607 103.939C818.502 108.091 819.285 111.861 819.957 115.248C820.186 117.325 820.63 118.745 821.29 119.508C822.059 120.27 822.991 120.648 824.084 120.643C824.741 120.64 825.56 120.527 826.544 120.303C827.636 119.97 829.056 119.526 830.803 118.971C835.281 117.528 839.976 115.92 844.89 114.147C849.912 112.264 854.441 110.055 858.476 107.521C862.621 104.985 865.997 102.016 868.606 98.6135C871.324 95.1007 872.672 91.0474 872.651 86.4537C872.634 82.8444 871.854 79.8402 870.312 77.4412C868.769 74.9328 866.626 72.9194 863.885 71.401C861.143 69.7732 857.966 68.6397 854.353 68.0004C850.741 67.3611 846.802 67.0514 842.536 67.0715C838.161 67.092 833.733 67.4409 829.252 68.1182C824.88 68.795 820.619 69.7447 816.468 70.9673ZM983.31 138.435C983.379 153.091 985.674 164.401 990.196 172.364C994.718 180.327 1001.24 184.289 1009.78 184.249C1015.13 184.223 1020.05 182.614 1024.52 179.422C1029.1 176.228 1033.01 171.78 1036.27 166.077C1039.52 160.374 1042.01 153.636 1043.72 145.862C1045.54 137.979 1046.43 129.443 1046.39 120.256C1046.36 114.678 1046.12 109.866 1045.67 105.821C1045.21 101.667 1044.7 98.0056 1044.14 94.8363C1043.68 91.5571 1043.23 88.6608 1042.78 86.1472C1042.33 83.6337 1042.1 81.2285 1042.09 78.9316C1042.08 75.4317 1043.54 72.9092 1046.49 71.3641C1049.43 69.7096 1054.13 68.8672 1060.59 68.8369C1068.79 68.7984 1075.14 70.628 1079.64 74.3256C1084.25 78.0228 1086.58 83.426 1086.61 90.5353C1086.7 109.894 1084.87 127.294 1081.11 142.734C1077.47 158.173 1072.11 171.323 1065.06 182.184C1058.11 192.936 1049.61 201.234 1039.58 207.078C1029.54 212.922 1018.29 215.873 1005.82 215.932C996.963 215.973 988.752 214.152 981.187 210.469C973.733 206.895 967.256 201.839 961.757 195.302C956.366 188.656 952.118 180.8 949.013 171.737C945.907 162.564 944.329 152.509 944.278 141.571C944.258 137.415 944.347 132.985 944.543 128.281C944.74 123.577 945.045 118.544 945.457 113.183C945.869 107.712 946.388 101.803 947.014 95.4563C947.75 89.109 948.538 82.2146 949.378 74.7731C949.691 71.5997 951.156 69.0772 953.772 67.2055C956.497 65.224 959.938 64.2234 964.094 64.2039C967.813 64.1864 971.315 64.5528 974.6 65.303C977.884 66.0532 980.678 67.0792 982.981 68.3809C985.394 69.6821 987.26 71.2046 988.581 72.9484C990.011 74.6917 990.731 76.5477 990.74 78.5165C990.749 80.4852 990.326 83.6044 989.471 87.8741C988.725 92.0339 987.873 96.8504 986.914 102.324C986.064 107.687 985.217 113.543 984.372 119.891C983.635 126.128 983.281 132.31 983.31 138.435ZM1216.15 75.4895C1216.59 75.7062 1217.25 75.8125 1218.12 75.8084C1220.53 75.7971 1221.72 74.2055 1221.71 71.0337L1221.47 20.0108C1221.44 13.5577 1222.84 8.95737 1225.67 6.20968C1228.61 3.46147 1233.47 2.07145 1240.25 2.03961C1247.14 2.00726 1252.02 3.40627 1254.87 6.23664C1257.73 9.06701 1259.17 13.9275 1259.21 20.818C1259.22 23.443 1259.07 27.3265 1258.77 32.4686C1258.46 37.5014 1258.11 43.2453 1257.7 49.7004C1257.4 56.155 1257.11 63.1018 1256.81 70.5407C1256.52 77.8703 1256.39 85.1444 1256.43 92.3631C1256.48 103.519 1257.29 113.141 1258.86 121.227C1260.43 129.313 1262.65 136.03 1265.51 141.376C1268.38 146.612 1271.79 150.534 1275.74 153.14C1279.69 155.637 1284.13 156.874 1289.05 156.851C1291.78 156.838 1294.24 156.499 1296.43 155.832C1298.72 155.056 1301.4 154.66 1304.46 154.646C1306.65 154.636 1308.46 155.776 1309.89 158.066C1311.43 160.246 1312.21 162.922 1312.22 166.094C1312.24 168.938 1311.38 171.622 1309.64 174.145C1308.01 176.669 1305.72 178.867 1302.78 180.74C1299.94 182.613 1296.61 184.105 1292.79 185.217C1288.97 186.219 1284.98 186.73 1280.82 186.75C1271.85 186.792 1263.64 184.096 1256.17 178.662C1248.71 173.119 1243.09 164.669 1239.32 153.311C1238.98 151.563 1238.43 150.69 1237.67 150.694C1236.79 150.698 1236.09 151.576 1235.55 153.329C1232.63 161.327 1228.78 168.564 1224 175.04C1219.33 181.405 1213.83 186.9 1207.51 191.524C1201.29 196.037 1194.42 199.515 1186.88 201.956C1179.46 204.398 1171.59 205.638 1163.28 205.677C1154.53 205.718 1146.48 204.279 1139.14 201.36C1131.91 198.55 1125.65 194.588 1120.38 189.472C1115.1 184.246 1110.97 178.141 1107.99 171.155C1105 164.059 1103.49 156.41 1103.45 148.207C1103.4 137.707 1105.54 127.798 1109.87 118.481C1114.21 109.164 1120.07 101.042 1127.48 94.1169C1134.99 87.0816 1143.72 81.5171 1153.65 77.4235C1163.58 73.33 1174.18 71.2568 1185.45 71.2039C1190.04 71.1823 1194.91 71.5423 1200.06 72.2838C1205.2 72.9159 1210.56 73.9845 1216.15 75.4895ZM1169.54 176.116C1175.77 176.086 1181.29 174.693 1186.09 171.936C1191 169.179 1195.3 165.713 1199 161.54C1202.81 157.256 1206.01 152.593 1208.61 147.549C1211.21 142.396 1213.32 137.41 1214.94 132.59C1216.56 127.769 1217.74 123.443 1218.49 119.612C1219.24 115.78 1219.61 113.044 1219.6 111.403C1219.59 110.2 1219.26 109.163 1218.6 108.291C1217.94 107.31 1216.95 106.549 1215.64 106.008C1212.68 105.256 1209.61 104.614 1206.44 104.082C1203.27 103.441 1200.15 102.909 1197.08 102.486C1194.02 102.062 1191.06 101.748 1188.22 101.543C1185.48 101.337 1182.97 101.239 1180.67 101.25C1174.11 101.281 1168.15 102.293 1162.8 104.287C1157.45 106.281 1152.87 109.092 1149.06 112.719C1145.36 116.346 1142.48 120.68 1140.42 125.721C1138.37 130.652 1137.36 136.071 1137.38 141.977C1137.41 147.227 1138.2 151.981 1139.75 156.24C1141.41 160.388 1143.61 163.933 1146.36 166.873C1149.22 169.813 1152.62 172.094 1156.56 173.716C1160.51 175.338 1164.83 176.138 1169.54 176.116ZM1413.02 74.5653C1413.46 74.782 1414.12 74.8883 1414.99 74.8841C1417.4 74.8729 1418.6 73.2813 1418.58 70.1094L1418.34 19.0866C1418.31 12.6335 1419.71 8.03314 1422.54 5.28545C1425.48 2.53724 1430.34 1.14722 1437.12 1.11538C1444.01 1.08303 1448.89 2.48204 1451.75 5.31241C1454.6 8.14278 1456.05 13.0032 1456.08 19.8938C1456.09 22.5188 1455.95 26.4023 1455.64 31.5444C1455.34 36.5771 1454.98 42.3211 1454.57 48.7762C1454.28 55.2308 1453.98 62.1775 1453.69 69.6165C1453.39 76.9461 1453.26 84.2202 1453.3 91.4389C1453.35 102.595 1454.16 112.216 1455.73 120.303C1457.3 128.389 1459.52 135.105 1462.39 140.451C1465.26 145.688 1468.66 149.61 1472.61 152.216C1476.56 154.713 1481 155.95 1485.92 155.927C1488.66 155.914 1491.12 155.575 1493.3 154.908C1495.59 154.132 1498.27 153.736 1501.33 153.722C1503.52 153.712 1505.33 154.852 1506.76 157.142C1508.3 159.322 1509.08 161.998 1509.1 165.17C1509.11 168.014 1508.25 170.697 1506.51 173.221C1504.88 175.745 1502.6 177.943 1499.65 179.816C1496.82 181.689 1493.49 183.181 1489.66 184.293C1485.84 185.295 1481.85 185.806 1477.69 185.825C1468.73 185.867 1460.51 183.172 1453.05 177.738C1445.58 172.195 1439.97 163.744 1436.19 152.387C1435.86 150.639 1435.31 149.766 1434.54 149.77C1433.67 149.774 1432.96 150.652 1432.42 152.405C1429.5 160.403 1425.66 167.64 1420.87 174.115C1416.2 180.481 1410.7 185.976 1404.38 190.599C1398.17 195.113 1391.29 198.591 1383.76 201.032C1376.33 203.473 1368.46 204.713 1360.15 204.752C1351.4 204.793 1343.35 203.355 1336.01 200.436C1328.78 197.626 1322.53 193.663 1317.25 188.547C1311.98 183.322 1307.85 177.216 1304.86 170.23C1301.88 163.135 1300.36 155.486 1300.32 147.283C1300.27 136.783 1302.42 126.874 1306.75 117.557C1311.08 108.24 1316.95 100.118 1324.35 93.1927C1331.87 86.1573 1340.59 80.5929 1350.52 76.4993C1360.46 72.4058 1371.06 70.3325 1382.32 70.2797C1386.92 70.2581 1391.79 70.6181 1396.93 71.3595C1402.07 71.9916 1407.44 73.0602 1413.02 74.5653ZM1366.41 175.191C1372.64 175.162 1378.16 173.769 1382.96 171.012C1387.87 168.255 1392.17 164.789 1395.87 160.615C1399.68 156.332 1402.88 151.668 1405.49 146.625C1408.09 141.472 1410.2 136.485 1411.81 131.665C1413.43 126.845 1414.62 122.519 1415.36 118.688C1416.11 114.856 1416.48 112.12 1416.47 110.479C1416.47 109.276 1416.13 108.239 1415.47 107.367C1414.81 106.385 1413.83 105.624 1412.51 105.084C1409.55 104.332 1406.49 103.69 1403.31 103.158C1400.14 102.517 1397.02 101.984 1393.95 101.561C1390.89 101.138 1387.93 100.824 1385.09 100.619C1382.35 100.413 1379.84 100.315 1377.54 100.326C1370.98 100.357 1365.02 101.369 1359.67 103.363C1354.32 105.357 1349.74 108.167 1345.93 111.795C1342.23 115.421 1339.35 119.755 1337.3 124.796C1335.24 129.728 1334.23 135.147 1334.26 141.053C1334.28 146.303 1335.07 151.057 1336.62 155.315C1338.28 159.464 1340.48 163.008 1343.23 165.949C1346.09 168.888 1349.49 171.169 1353.44 172.791C1357.38 174.414 1361.71 175.214 1366.41 175.191ZM1569.14 198.193C1562.57 198.224 1556 196.669 1549.43 193.528C1542.85 190.277 1536.54 185.877 1530.5 180.327C1524.46 174.778 1518.85 168.241 1513.67 160.719C1508.49 153.087 1503.97 144.905 1500.1 136.173C1496.23 127.331 1493.18 118.104 1490.95 108.489C1488.72 98.8743 1487.58 89.2545 1487.53 79.6296C1487.5 72.1922 1489 66.8804 1492.05 63.6942C1495.1 60.3986 1500.07 58.7346 1506.96 58.7022C1515.6 58.6617 1520.43 62.1937 1521.44 69.2984C1523.48 84.3828 1526.28 97.987 1529.84 110.111C1533.4 122.235 1537.55 132.552 1542.29 141.061C1547.14 149.569 1552.48 156.107 1558.3 160.673C1564.22 165.239 1570.47 167.507 1577.03 167.476C1581.73 167.454 1586.16 166.285 1590.3 163.968C1594.45 161.543 1598.04 158.19 1601.08 153.91C1602.17 152.264 1602.87 150.675 1603.2 149.142C1603.63 147.609 1603.95 145.857 1604.16 143.888C1604.67 136.119 1605.23 128.515 1605.85 121.075C1606.58 113.524 1607.26 105.974 1607.88 98.4242C1608.08 95.142 1608.51 92.4603 1609.15 90.3791C1609.8 88.2979 1610.78 86.6527 1612.08 85.4434C1613.39 84.2341 1615.08 83.4059 1617.16 82.9586C1619.34 82.5108 1622.08 82.2793 1625.36 82.2639C1629.08 82.2464 1632.25 82.7784 1634.88 83.8598C1637.51 84.8318 1639.65 86.5171 1641.3 88.9156C1642.96 91.2048 1644.12 94.2619 1644.79 98.0869C1645.58 101.802 1645.98 106.449 1646.01 112.027C1646.03 116.839 1645.67 121.052 1644.92 124.665C1644.28 128.168 1643.47 131.507 1642.5 134.684C1641.64 137.751 1640.78 140.817 1639.92 143.884C1639.17 146.84 1638.69 150.124 1638.49 153.734C1637.99 162.815 1637.53 170.692 1637.13 177.366C1636.72 183.93 1636.36 189.565 1636.06 194.27C1635.86 198.974 1635.66 203.022 1635.46 206.413C1635.36 209.804 1635.27 212.813 1635.17 215.438C1635.07 218.173 1635.03 220.743 1635.04 223.15C1635.05 225.556 1635.07 228.181 1635.08 231.025C1635.1 236.165 1635.35 241.742 1635.81 247.756C1636.28 253.879 1636.75 259.728 1637.21 265.304C1637.78 270.879 1638.3 275.799 1638.76 280.063C1639.21 284.326 1639.45 287.278 1639.45 288.919C1639.46 290.997 1638.82 292.969 1637.51 294.834C1636.21 296.7 1634.47 298.348 1632.29 299.781C1630.1 301.213 1627.54 302.319 1624.59 303.098C1621.64 303.987 1618.53 304.439 1615.25 304.454C1612.4 304.468 1610.1 303.494 1608.34 301.534C1606.69 299.682 1605.75 297.171 1605.52 294C1605.17 289.845 1604.87 284.761 1604.62 278.746C1604.38 272.841 1604.13 266.498 1603.88 259.718C1603.63 253.047 1603.43 246.212 1603.29 239.213C1603.26 232.322 1603.17 225.87 1603.04 219.855C1602.9 213.949 1602.82 208.754 1602.8 204.27C1602.78 199.785 1602.76 196.559 1602.75 194.59C1602.74 192.621 1602.52 191.255 1602.08 190.492C1601.64 189.619 1600.81 189.185 1599.61 189.191C1598.95 189.194 1598.08 189.417 1596.99 189.859C1595.9 190.192 1594.64 190.8 1593.22 191.682C1589.41 193.996 1585.53 195.655 1581.6 196.658C1577.67 197.661 1573.51 198.173 1569.14 198.193Z" fill="#080712"/>
</svg>
