<svg width="1447" height="393" viewBox="0 0 1447 393" fill="none" xmlns="http://www.w3.org/2000/svg">
<path d="M171.407 250.15C171.467 263.019 169.227 273.183 164.686 280.64C160.143 287.812 153.454 294.564 144.617 300.898C142.336 302.339 139.198 304.069 135.204 306.09C131.209 308.111 126.785 309.991 121.931 311.73C117.077 313.468 111.936 314.922 106.507 316.092C101.079 317.261 96.0765 317.857 91.5006 317.878C78.6307 317.939 68.9001 316.555 62.3088 313.725C55.7188 311.182 52.415 308.052 52.3976 304.334C52.3788 300.33 53.5073 297.036 55.7832 294.451C58.0591 291.866 60.0544 290.427 61.769 290.133L66.5041 293.543C67.9408 294.966 69.9501 296.529 72.5322 298.233C75.1129 299.651 79.2632 300.347 84.9831 300.32C90.417 300.294 96.9909 299.405 104.705 297.653C112.417 295.615 119.697 292.721 126.543 288.971C133.674 284.933 139.658 280.043 144.493 274.3C149.614 268.556 152.157 261.966 152.122 254.53C152.091 247.952 147.058 241.97 137.022 236.583C127.272 230.909 111.81 227.12 90.6366 225.217C79.7647 224.411 69.0338 223.174 58.4438 221.508C47.8525 219.555 38.2596 217.026 29.6649 213.921C21.3549 210.528 14.6145 206.412 9.4437 201.574C4.27159 196.451 1.66808 190.171 1.63318 182.735C1.59961 175.585 3.56936 168.712 7.54244 162.115C11.5155 155.518 16.3493 149.489 22.0437 144.029C28.0228 138.28 34.1482 133.247 40.42 128.927C46.6918 124.608 51.966 121.008 56.2425 118.128C59.665 116.11 64.3719 113.514 70.3631 110.339C76.6389 106.878 83.2021 103.701 90.0526 100.809C97.1877 97.6293 104.183 95.0225 111.037 92.9883C118.176 90.6667 124.177 89.4945 129.039 89.4717C134.759 89.4448 138.627 90.9997 140.644 94.1363C142.661 97.2728 143.682 101.701 143.709 107.421C143.732 112.283 143.184 117.434 142.066 122.873C140.947 128.312 139.685 133.609 138.279 138.764C136.873 143.919 135.465 148.501 134.054 152.512C132.927 156.235 132.081 158.67 131.514 159.817C130.382 162.396 129.103 164.118 127.677 164.983C126.251 165.848 125.252 166.281 124.68 166.284C123.536 166.289 122.961 165.577 122.954 164.147C122.95 163.289 123.086 161.715 123.361 159.426C123.921 156.849 124.479 153.844 125.035 150.409C125.877 146.973 126.431 143.253 126.698 139.247C127.252 135.241 127.519 131.235 127.5 127.231C127.47 120.939 127.163 116.365 126.578 113.508C125.992 110.65 123.697 109.231 119.694 109.25C115.69 109.269 110.261 110.438 103.408 112.758C96.5533 114.792 89.5584 117.399 82.4233 120.579C74.7175 124.047 67.1594 128.516 59.749 133.984C52.6245 139.452 46.2158 145.059 40.5227 150.806C34.8296 156.553 30.1369 162.152 26.4444 167.603C23.0366 172.767 21.3401 176.922 21.3549 180.068C21.371 183.5 23.6744 186.778 28.2651 189.903C33.1405 192.74 39.1585 195.286 46.3192 197.54C53.7658 199.793 61.9261 201.757 70.8001 203.431C79.6741 205.106 88.403 206.352 96.9869 207.169C104.141 207.994 112.011 209.101 120.598 210.491C129.184 211.88 137.203 214.131 144.654 217.242C152.104 220.353 158.417 224.613 163.59 230.023C168.762 235.147 171.368 241.856 171.407 250.15ZM332.223 232.234C333.659 233.658 334.378 234.512 334.38 234.798C334.382 235.37 333.532 237.09 331.83 239.958C330.413 242.825 328.425 245.837 325.866 248.995C323.307 252.154 320.461 255.027 317.327 257.616C314.477 259.917 311.623 261.074 308.763 261.088C302.757 261.116 297.89 259.995 294.161 257.724C290.431 255.168 287.27 252.037 284.679 248.331C282.373 244.624 280.495 240.628 279.045 236.345C277.88 231.775 276.859 227.489 275.982 223.489C275.401 221.49 274.824 220.492 274.252 220.494C273.394 220.498 271.693 223.653 269.148 229.957C266.602 235.975 263.774 242.709 260.663 250.16C257.837 257.323 255.008 264.057 252.178 270.363C249.632 276.381 247.93 279.392 247.072 279.396C241.924 279.42 237.481 277.296 233.743 273.023C230.29 268.463 227.405 263.329 225.091 257.62C223.06 251.623 221.459 245.625 220.287 239.624C219.114 233.337 218.376 228.479 218.074 225.048C217.179 217.33 215.26 204.469 212.315 186.465C209.371 168.46 206.837 146.593 204.714 120.863C204.117 115.432 203.379 110.573 202.501 106.287C201.907 101.714 201.169 96.7122 200.285 91.2823C199.402 85.8523 198.658 79.7068 198.054 72.8455C197.45 65.9843 197.124 57.5487 197.077 47.5388C197.074 46.9668 197.209 45.1072 197.48 41.9599C197.751 38.8126 198.164 35.3786 198.719 31.658C199.273 27.9373 200.116 24.6443 201.246 21.779C202.663 18.9123 204.229 17.4749 205.945 17.4669C207.947 17.4575 209.812 18.7357 211.54 21.3017C213.267 23.5816 214.71 26.2918 215.868 29.4324C217.313 32.5717 218.328 35.57 218.914 38.4272C219.499 41.2845 219.794 43.2851 219.8 44.4291C219.82 48.7191 219.553 52.7244 218.998 56.445C218.444 60.1657 218.174 63.599 218.189 66.7449C218.209 71.0349 218.52 76.4675 219.123 83.0427C220.012 89.6166 221.044 96.3329 222.221 103.191C223.397 110.05 224.429 116.766 225.318 123.34C226.206 129.628 226.945 134.773 227.536 138.774C227.537 139.06 227.832 141.06 228.422 144.776C229.011 148.491 229.606 153.207 230.204 158.925C231.088 164.354 231.831 170.357 232.434 176.932C233.321 183.22 234.209 189.508 235.097 195.796C235.983 201.798 236.723 207.228 237.318 212.088C238.198 216.66 238.785 219.946 239.08 221.947C239.084 222.805 239.233 224.091 239.527 225.806C240.106 227.233 240.543 228.947 240.839 230.947C241.42 232.947 242.001 234.803 242.581 236.516C243.161 238.23 243.882 239.513 244.744 240.367C246.444 236.927 248.564 231.626 251.104 224.464C253.931 217.301 256.756 209.994 259.581 202.545C262.693 195.094 265.522 188.646 268.071 183.2C270.904 177.467 273.321 174.595 275.323 174.586C277.611 174.575 279.472 174.995 280.906 175.847C282.34 176.698 284.203 177.404 286.493 177.966C289.359 179.096 290.796 180.662 290.805 182.664C290.814 184.38 291.11 186.524 291.694 189.095C292.282 192.525 293.161 197.096 294.332 202.811C295.788 208.238 297.386 213.665 299.128 219.091C300.868 224.231 302.891 228.654 305.196 232.361C307.501 236.069 309.798 237.917 312.086 237.906C313.23 237.901 314.796 236.463 316.785 233.594C318.772 230.439 321.481 228.71 324.912 228.408C325.484 228.405 326.487 228.829 327.921 229.681C329.353 230.246 330.787 231.097 332.223 232.234ZM436.316 218.447C436.345 224.739 435.515 230.749 433.826 236.477C432.137 242.204 429.873 247.22 427.033 251.524C424.193 255.827 420.777 259.275 416.785 261.868C413.078 264.173 408.936 265.337 404.36 265.358C396.353 265.396 390.05 263.137 385.452 258.583C380.855 254.028 377.255 248.754 374.653 242.76C372.337 236.765 370.736 230.767 369.85 224.765C369.248 218.475 368.94 213.758 368.925 210.612C368.901 205.464 369.589 199.741 370.989 193.442C372.675 186.856 374.791 180.84 377.34 175.394C380.174 169.947 383.299 165.356 386.713 161.622C390.128 157.888 393.694 156.012 397.412 155.995C398.27 155.991 399.558 156.27 401.277 156.834C403.282 157.397 405.288 158.246 407.295 159.38C409.302 160.515 411.025 161.937 412.463 163.646C414.187 165.354 415.34 167.351 415.923 169.636C419.071 169.907 422.222 171.036 425.377 173.023C428.533 175.011 430.256 176.576 430.547 177.718C432.87 185.143 434.335 192.573 434.942 200.006C435.835 207.438 436.293 213.585 436.316 218.447ZM416.975 210.815C416.954 206.525 416.505 202.094 415.625 197.523C414.744 192.665 413.006 187.811 410.409 182.961C409.838 183.25 409.124 183.396 408.266 183.4C407.122 183.405 406.12 183.267 405.261 182.985C404.687 182.702 404.115 182.561 403.543 182.564C400.111 182.58 397.399 183.594 395.406 185.605C393.412 187.331 391.85 189.769 390.721 192.92C389.877 195.784 389.319 198.933 389.05 202.366C388.78 205.8 388.652 209.089 388.667 212.235C388.682 215.381 388.841 218.955 389.146 222.958C389.45 226.675 390.038 230.247 390.913 233.675C392.073 237.102 393.517 240.098 395.245 242.664C396.972 244.944 399.265 246.077 402.125 246.063C404.985 246.05 407.409 244.609 409.398 241.739C411.385 238.584 412.941 235.002 414.066 230.992C415.191 226.983 415.888 223.119 416.157 219.399C416.71 215.393 416.983 212.531 416.975 210.815ZM608.867 121.54C610.012 121.82 610.588 122.675 610.595 124.105C610.604 126.107 609.613 128.257 607.622 130.554C605.63 132.566 604.639 134.858 604.651 137.432C604.654 138.004 604.521 140.15 604.253 143.869C604.27 147.587 604.29 151.734 604.311 156.31C604.333 160.886 604.21 165.177 603.942 169.182C603.961 173.186 603.972 175.474 603.975 176.046L604.174 218.517C604.175 218.803 604.042 220.805 603.773 224.525C603.505 228.244 602.954 232.679 602.12 237.831C601.572 242.982 600.882 248.419 600.051 254.143C599.505 259.58 598.812 264.302 597.973 268.31C597.692 269.456 596.838 270.318 595.411 270.896C594.27 271.474 592.842 272.052 591.129 272.632C589.7 272.925 588.272 273.218 586.843 273.511C585.413 273.517 584.555 273.521 584.269 273.523C581.123 273.537 577.682 271.695 573.947 267.994C570.498 264.292 567.189 260.161 564.022 255.6C560.854 251.038 558.117 246.761 555.81 242.768C553.504 238.775 552.206 236.493 551.917 235.922C550.792 239.931 549.524 244.084 548.115 248.381C546.703 252.392 545.148 256.117 543.448 259.557C541.748 262.997 539.76 265.867 537.482 268.165C535.491 270.463 533.209 271.617 530.635 271.629C527.203 271.646 523.62 269.946 519.886 266.532C516.151 263.117 512.27 258.703 508.24 253.287C504.497 247.871 500.894 241.882 497.431 235.32C493.967 228.472 490.933 221.908 488.329 215.628C485.726 209.349 483.553 203.496 481.812 198.07C480.356 192.643 479.621 188.356 479.606 185.21C479.601 184.066 480.166 182.633 481.302 180.912C482.438 179.191 484.007 178.325 486.009 178.316C490.013 178.297 492.879 179.571 494.607 182.137C494.894 182.421 495.764 184.991 497.217 189.846C498.956 194.7 501.271 200.409 504.162 206.974C507.053 213.538 510.374 220.387 514.125 227.519C518.162 234.365 522.622 240.207 527.507 245.046C529.491 241.318 531.045 237.164 532.167 232.583C533.576 228 534.699 223.562 535.537 219.268C536.375 214.974 536.929 211.11 537.198 207.677C537.467 203.958 537.596 200.954 537.585 198.666C537.002 196.381 536.563 194.095 536.266 191.808C535.971 189.807 535.675 187.807 535.38 185.806C535.37 183.804 535.362 182.088 535.356 180.658C535.322 173.508 538.165 169.92 543.885 169.893C548.175 169.873 551.471 171.288 553.772 174.137C556.072 176.7 557.803 179.838 558.964 183.55C560.125 186.977 560.856 190.406 561.158 193.836C561.746 197.266 562.329 199.694 562.908 201.121C565.227 207.688 567.258 213.828 569 219.54C571.029 225.25 574.346 231.098 578.95 237.082C580.09 236.219 580.941 234.785 581.504 232.78C582.351 230.488 582.912 228.198 583.188 225.908C583.463 223.619 583.596 221.616 583.588 219.9C583.579 217.898 583.572 216.468 583.568 215.61L583.167 130.24C583.159 128.524 583.867 126.948 585.29 125.511C586.714 124.075 588.423 122.779 590.42 121.626C592.417 120.473 594.272 119.606 595.985 119.026C597.983 118.159 599.411 117.723 600.269 117.719C601.699 117.712 602.988 118.135 604.136 118.988C605.57 119.839 607.147 120.69 608.867 121.54ZM849.692 180.041C849.727 187.477 848.046 194.777 844.647 201.944C841.249 209.11 836.99 215.851 831.872 222.167C826.754 228.483 821.204 234.372 815.224 239.834C809.242 245.01 803.829 249.469 798.984 253.209C793.855 257.238 787.869 261.556 781.027 266.164C774.185 270.772 767.484 275.094 760.925 279.128C754.652 283.162 749.092 286.906 744.246 290.361C739.399 293.53 736.406 295.689 735.268 296.838L722.873 306.763C721.448 307.914 719.736 308.637 717.735 308.932C716.02 309.227 714.591 309.376 713.447 309.382C711.445 309.391 709.868 308.397 708.714 306.401C707.559 304.118 706.977 301.833 706.966 299.545C706.958 297.829 708.517 294.819 711.643 290.514C715.053 285.922 718.896 282.043 723.171 278.877C727.446 275.711 732.722 272.54 739 269.364C745.277 266.189 753.833 261.144 764.669 254.229C770.087 250.771 776.644 246.307 784.34 240.837C792.035 235.081 799.3 229.041 806.134 222.717C812.967 216.106 818.799 209.358 823.629 202.471C828.457 195.298 830.856 188.423 830.825 181.845C830.813 179.271 827.655 176.712 821.351 174.168C815.331 171.336 806.745 169.946 795.591 169.998C784.151 170.052 772.147 171.825 759.579 175.316C747.012 178.807 735.303 182.58 724.454 186.635C713.891 190.688 704.757 194.449 697.051 197.917C689.345 201.386 684.634 203.124 682.918 203.132C683.807 209.706 684.846 217.852 686.036 227.57C687.51 237.002 688.983 246.147 690.455 255.006C691.933 265.295 693.556 276.013 695.325 287.158L697.041 287.15C697.626 290.008 698.79 294.149 700.531 299.575C702.272 305.001 703.151 309.287 703.165 312.433C703.187 317.009 701.482 319.305 698.05 319.321C696.334 319.329 694.324 317.765 692.022 314.63C690.005 311.494 687.842 307.786 685.534 303.507C683.512 299.226 681.634 295.088 679.899 291.092C678.449 286.809 677.434 283.81 676.854 282.097C674.235 272.671 671.61 261.816 668.979 249.53C666.633 237.243 664.43 224.955 662.371 212.666C660.596 200.091 659.11 188.371 657.915 177.509C657.005 166.359 656.533 157.209 656.5 150.059C656.49 148.057 656.911 146.339 657.762 144.905C658.9 143.47 659.465 142.037 659.458 140.607C659.452 139.177 659.018 138.178 658.157 137.61C657.581 136.755 657.289 135.469 657.281 133.753C657.277 132.895 657.416 132.037 657.698 131.177C658.265 130.031 659.549 129.453 661.551 129.443C663.556 130.006 665.416 130.283 667.132 130.275C669.134 130.266 670.852 130.687 672.286 131.538C673.719 132.103 674.868 133.242 675.734 134.954C676.6 136.666 677.042 139.381 677.059 143.099L677.071 145.673C677.074 146.245 676.934 146.96 676.652 147.82C676.655 148.392 676.658 148.964 676.66 149.536C676.683 154.398 676.844 158.258 677.144 161.116C677.443 163.975 677.879 165.403 678.451 165.4C679.309 165.396 682.302 163.38 687.432 159.352C692.845 155.037 699.255 149.715 706.662 143.389C714.068 137.062 722.043 130.017 730.587 122.255C739.417 114.492 747.819 107.016 755.793 99.8285C758.925 96.9538 763.197 92.9297 768.606 87.7562C774.015 82.2968 779.279 76.552 784.399 70.5219C789.804 64.4905 794.354 58.8921 798.048 53.7267C802.026 48.2739 804.009 44.1176 803.995 41.2576C803.982 38.3976 803.117 36.9717 801.401 36.9797C799.113 36.9905 794.256 38.0143 786.83 40.0512C779.403 42.088 770.979 44.8446 761.557 48.3209C752.134 51.5112 742.428 55.2748 732.438 59.6117C722.448 63.9487 713.603 68.4232 705.903 73.0354C697.92 78.507 689.94 84.5505 681.963 91.166C673.986 97.7815 666.723 104.108 660.173 110.145C653.908 115.894 648.641 120.924 644.371 125.234C640.386 129.257 638.252 131.555 637.968 132.128C637.399 132.703 637.116 133.276 637.118 133.848C637.121 134.42 637.268 135.277 637.559 136.42C638.135 137.275 638.425 137.989 638.427 138.561C638.431 139.419 637.863 140.137 636.722 140.714C635.58 141.291 634.295 141.583 632.865 141.59C630.577 141.601 627.715 141.185 624.279 140.343C620.841 139.215 619.112 136.364 619.09 131.788C619.072 127.784 621.336 122.768 625.884 116.741C630.432 110.713 636.264 104.251 643.382 97.3532C650.786 90.4544 658.905 83.6952 667.74 77.0756C676.574 70.1701 685.267 63.8372 693.82 58.077C702.375 52.6028 711.645 47.4112 721.632 42.5023C731.904 37.306 741.893 32.826 751.6 29.0624C761.592 25.2975 771.017 22.3932 779.873 20.3496C788.728 18.02 796.016 16.8418 801.736 16.8149C804.024 16.8042 806.599 17.0781 809.462 17.6367C812.324 18.1952 815.045 19.0405 817.625 20.1724C820.204 21.3043 822.356 22.8672 824.082 24.8611C825.806 26.569 826.674 28.71 826.686 31.284C826.722 39.0059 824.472 47.0245 819.935 55.3399C815.396 63.3693 809.429 71.5484 802.032 79.8772C794.635 88.206 786.237 96.6826 776.84 105.307C767.727 113.644 758.47 121.838 749.07 129.89C739.954 137.655 731.124 145.276 722.579 152.752C714.033 159.942 706.914 166.554 701.222 172.587C704.362 171.428 709.502 169.545 716.64 166.937C723.776 164.044 731.485 161.29 739.767 158.677C748.333 155.777 756.902 153.306 765.472 151.264C774.043 149.221 781.617 148.185 788.195 148.154C790.197 148.145 794.488 148.267 801.067 148.523C807.646 148.778 814.516 149.889 821.675 151.858C828.834 153.826 835.285 157.085 841.026 161.634C846.766 165.897 849.655 172.033 849.692 180.041ZM1029.47 237.112C1029.48 239.686 1027.78 242.411 1024.36 245.287C1020.94 248.163 1016.95 250.899 1012.39 253.495C1007.82 255.804 1003.11 257.828 998.257 259.567C993.689 261.305 990.261 262.179 987.973 262.189C985.399 262.201 982.536 261.5 979.383 260.085C976.516 258.668 973.648 256.966 970.779 254.977C968.196 252.987 965.899 251.139 963.889 249.432C961.879 247.726 960.586 246.588 960.012 246.018C959.158 246.88 957.879 248.602 956.175 251.185C954.471 253.767 952.34 256.637 949.78 259.795C947.506 262.665 944.944 265.251 942.095 267.553C939.531 269.853 936.82 271.01 933.96 271.023C926.524 271.058 920.07 267.084 914.599 259.102C909.127 251.119 904.508 241.989 900.742 231.711C897.262 221.431 894.498 211.577 892.452 202.148C890.69 192.432 889.802 185.858 889.785 182.426C889.776 180.424 890.77 178.847 892.766 177.693C895.048 176.253 896.76 175.53 897.904 175.524C901.908 175.505 904.632 176.923 906.075 179.776C907.517 182.343 908.246 185.2 908.26 188.346C908.273 190.92 909.009 195.492 910.47 202.064C912.217 208.633 914.25 215.345 916.57 222.198C918.891 229.051 921.351 235.189 923.95 240.611C926.548 245.747 928.848 248.31 930.85 248.3C934.568 248.283 937.703 245.98 940.256 241.392C943.093 236.517 945.355 231.072 947.043 225.058C948.73 218.758 949.989 212.889 950.822 207.451C951.653 201.727 952.064 198.007 952.056 196.291C952.055 196.005 952.051 195.147 952.044 193.717C952.322 192 952.6 190.283 952.878 188.565C953.156 186.848 953.292 185.274 953.285 183.844C953.564 182.413 953.702 181.411 953.7 180.839C953.69 178.837 953.255 177.552 952.395 176.984C951.533 176.13 951.096 174.56 951.085 172.272C951.077 170.556 951.928 168.979 953.637 167.54C955.345 165.816 959.059 164.941 964.779 164.914C967.067 164.903 968.786 165.61 969.937 167.035C971.372 168.172 972.38 169.598 972.96 171.311C973.54 173.024 973.834 174.739 973.842 176.455C974.135 177.883 974.283 178.884 974.285 179.456C974.287 179.742 974.153 181.744 973.885 185.464C973.616 189.183 973.35 193.331 973.085 197.909C973.105 202.198 972.982 206.346 972.714 210.351C972.447 214.357 972.316 216.788 972.32 217.646C972.324 218.504 972.761 220.218 973.631 222.788C974.501 225.358 975.515 228.07 976.672 230.925C978.114 233.492 979.699 235.916 981.425 238.196C983.151 240.19 985.014 241.182 987.016 241.173C990.448 241.156 993.592 240.713 996.448 239.841C999.589 238.683 1002.44 237.525 1005.01 236.369C1007.87 234.926 1010.43 233.77 1012.72 232.901C1015 231.746 1017.14 231.164 1019.14 231.155C1021.72 231.143 1024.01 231.704 1026.02 232.838C1028.31 233.972 1029.46 235.396 1029.47 237.112ZM1168.1 238.606C1168.11 240.036 1167.4 241.47 1165.98 242.906C1164.84 244.056 1164.13 245.346 1163.85 246.778C1163.87 249.923 1164.45 252.924 1165.61 255.778C1167.05 258.632 1167.79 262.06 1167.8 266.064C1167.82 269.782 1166.69 271.646 1164.4 271.657C1161.54 271.671 1159.4 272.11 1157.97 272.974C1156.83 273.552 1154.69 274.134 1151.54 274.721C1149.83 274.729 1147.96 273.164 1145.94 270.028C1144.79 268.603 1143.78 266.892 1142.92 264.894C1142.92 264.608 1142.06 265.184 1140.35 266.622C1138.93 268.059 1136.36 269.787 1132.65 271.806C1129.23 273.538 1124.38 275.277 1118.09 277.023C1112.09 278.481 1104.37 279.232 1094.94 279.276C1086.93 279.314 1079.91 277.631 1073.89 274.227C1067.87 270.537 1062.84 265.842 1058.81 260.141C1055.06 254.438 1052.17 248.017 1050.14 240.876C1048.39 233.448 1047.5 226.017 1047.46 218.581C1047.43 211.717 1048.11 205.278 1049.51 199.266C1051.2 192.966 1053.46 187.521 1056.3 182.932C1059.14 178.056 1062.7 174.179 1066.97 171.298C1071.25 168.418 1076.25 166.965 1081.97 166.938C1087.4 166.913 1092.84 168.603 1098.29 172.009C1103.74 175.416 1108.62 179.111 1112.93 183.095C1117.24 187.079 1120.69 190.781 1123.28 194.2C1126.15 197.333 1127.59 198.899 1127.59 198.899C1123.48 176.61 1119.81 156.464 1116.58 138.461C1115.12 130.746 1113.65 123.174 1112.19 115.745C1111.01 108.028 1109.83 101.17 1108.66 95.1689C1107.49 89.1684 1106.46 84.1681 1105.58 80.1682C1104.99 75.8809 1104.69 73.3083 1104.69 72.4503C1104.4 70.7357 1104.1 67.7341 1103.79 63.4454C1103.48 58.8708 1103.17 54.1532 1102.87 49.2926C1102.56 44.432 1102.25 40.0004 1101.94 35.9978C1101.64 31.9952 1101.34 29.4226 1101.05 28.2799C1100.18 25.424 1099.02 21.8544 1097.57 17.5711C1096.4 13.2866 1095.82 10.8583 1095.82 10.2863C1095.81 8.8563 1096.52 7.13696 1097.94 5.12827C1099.36 2.83358 1101.21 1.68086 1103.5 1.67012C1105.22 1.66207 1106.79 1.79768 1108.22 2.07696C1109.65 2.35626 1110.94 3.20821 1112.09 4.63282C1113.24 6.05744 1114.26 8.34071 1115.13 11.4826C1116.29 14.3372 1117.31 18.4795 1118.19 23.9094C1118.49 26.768 1119.37 32.198 1120.84 40.1992C1122.31 48.2004 1123.78 56.9165 1125.25 66.3477C1126.73 75.7789 1128.2 84.7811 1129.67 93.3543C1131.14 101.927 1132.17 108.215 1132.76 112.216C1134.24 123.077 1136.16 134.937 1138.51 147.796C1141.14 160.368 1143.77 172.511 1146.4 184.225C1149.03 195.939 1151.65 206.365 1154.27 215.505C1156.88 224.359 1159.2 230.354 1161.22 233.491C1161.79 234.632 1162.94 235.485 1164.66 236.049C1166.38 236.327 1167.53 237.179 1168.1 238.606ZM1136.4 247.335C1136.11 246.479 1134.23 242.913 1130.77 236.637C1127.6 230.074 1123.42 223.086 1118.23 215.674C1113.33 207.975 1107.73 201.137 1101.4 195.161C1095.37 189.183 1089.49 186.208 1083.77 186.235C1078.91 186.258 1074.93 189.994 1071.81 197.445C1068.99 204.894 1067.6 213.481 1067.65 223.205C1067.7 234.073 1070.88 242.781 1077.21 249.329C1083.81 255.876 1091.12 259.131 1099.13 259.093C1105.99 259.061 1113.14 257.884 1120.56 255.561C1127.99 253.238 1133.27 250.496 1136.4 247.335ZM1322.69 237.881C1322.7 239.311 1321.99 240.744 1320.57 242.181C1319.43 243.33 1318.72 244.62 1318.44 246.052C1318.46 249.198 1319.04 252.198 1320.2 255.053C1321.64 257.906 1322.37 261.334 1322.39 265.338C1322.41 269.056 1321.28 270.921 1318.99 270.931C1316.13 270.945 1313.98 271.384 1312.56 272.249C1311.42 272.826 1309.28 273.408 1306.13 273.995C1304.42 274.003 1302.55 272.439 1300.53 269.302C1299.38 267.878 1298.37 266.166 1297.51 264.168C1297.5 263.882 1296.65 264.458 1294.94 265.896C1293.52 267.333 1290.95 269.061 1287.24 271.081C1283.82 272.813 1278.96 274.551 1272.68 276.297C1266.68 277.755 1258.96 278.506 1249.52 278.551C1241.52 278.588 1234.5 276.905 1228.48 273.501C1222.46 269.812 1217.43 265.116 1213.4 259.415C1209.65 253.713 1206.76 247.291 1204.73 240.151C1202.98 232.723 1202.08 225.291 1202.05 217.855C1202.02 210.991 1202.7 204.553 1204.1 198.54C1205.79 192.24 1208.05 186.795 1210.89 182.206C1213.73 177.331 1217.29 173.453 1221.56 170.573C1225.84 167.693 1230.84 166.239 1236.56 166.212C1241.99 166.187 1247.43 167.877 1252.88 171.284C1258.33 174.69 1263.21 178.385 1267.52 182.369C1271.83 186.353 1275.28 190.055 1277.87 193.475C1280.74 196.607 1282.18 198.173 1282.18 198.173C1278.07 175.885 1274.4 155.739 1271.17 137.735C1269.71 130.02 1268.24 122.448 1266.78 115.019C1265.6 107.302 1264.42 100.444 1263.25 94.4432C1262.07 88.4427 1261.05 83.4424 1260.17 79.4425C1259.58 75.1552 1259.28 72.5826 1259.28 71.7246C1258.98 70.01 1258.68 67.0083 1258.38 62.7197C1258.07 58.1451 1257.76 53.4275 1257.45 48.5669C1257.15 43.7063 1256.84 39.2747 1256.53 35.2721C1256.23 31.2695 1255.93 28.6968 1255.64 27.5542C1254.77 24.6982 1253.61 21.1287 1252.16 16.8454C1250.99 12.5608 1250.41 10.1326 1250.41 9.56057C1250.4 8.13057 1251.11 6.41123 1252.53 4.40255C1253.95 2.10785 1255.8 0.955136 1258.09 0.944395C1259.8 0.936339 1261.38 1.07195 1262.81 1.35123C1264.24 1.63053 1265.53 2.48248 1266.68 3.9071C1267.83 5.33171 1268.85 7.61498 1269.72 10.7569C1270.88 13.6115 1271.9 17.7538 1272.78 23.1837C1273.08 26.0423 1273.96 31.4722 1275.43 39.4734C1276.9 47.4746 1278.37 56.1908 1279.84 65.622C1281.32 75.0532 1282.79 84.0554 1284.26 92.6286C1285.73 101.202 1286.76 107.489 1287.35 111.49C1288.83 122.351 1290.75 134.212 1293.1 147.071C1295.73 159.642 1298.36 171.785 1300.99 183.499C1303.62 195.213 1306.24 205.64 1308.86 214.779C1311.47 223.633 1313.79 229.628 1315.81 232.765C1316.38 233.906 1317.53 234.759 1319.25 235.323C1320.97 235.601 1322.12 236.453 1322.69 237.881ZM1290.99 246.61C1290.7 245.753 1288.82 242.187 1285.36 235.911C1282.18 229.348 1278 222.36 1272.82 214.949C1267.92 207.25 1262.31 200.412 1255.99 194.435C1249.96 188.458 1244.08 185.482 1238.36 185.509C1233.5 185.532 1229.51 189.269 1226.4 196.719C1223.58 204.169 1222.19 212.755 1222.23 222.479C1222.29 233.347 1225.47 242.055 1231.8 248.604C1238.4 255.151 1245.71 258.405 1253.72 258.368C1260.58 258.336 1267.73 257.158 1275.15 254.835C1282.58 252.512 1287.86 249.77 1290.99 246.61ZM1444.92 105.602C1441.29 125.354 1437.95 144.389 1434.89 162.707C1433.5 170.436 1432.11 178.593 1430.72 187.18C1429.32 195.481 1427.93 203.781 1426.54 212.082C1425.44 220.095 1424.33 227.822 1423.22 235.264C1422.39 242.418 1421.71 248.999 1421.17 255.008C1420.07 264.165 1419.26 274.608 1418.74 286.336C1418.22 298.065 1417.7 309.221 1417.18 319.806C1416.67 332.107 1416.44 344.549 1416.5 357.133C1416.51 359.707 1416.24 362.568 1415.68 365.717C1415.12 368.865 1414.85 372.013 1414.87 375.159C1414.88 378.019 1414.18 380.453 1412.76 382.462C1411.62 384.469 1409.77 385.479 1407.19 385.491C1404.91 385.501 1403.04 383.651 1401.59 379.94C1400.43 376.513 1399.41 372.371 1398.53 367.513C1397.65 362.941 1397.06 358.225 1396.75 353.364C1396.44 348.79 1396.28 345.501 1396.27 343.499C1396.26 341.212 1396.25 338.352 1396.23 334.92C1396.22 331.774 1396.34 326.911 1396.59 320.332C1397.13 314.037 1397.81 305.74 1398.62 295.44C1399.43 284.854 1400.65 271.12 1402.29 254.238C1402.29 253.952 1400.28 252.532 1396.26 249.977C1392.53 247.42 1387.8 244.296 1382.06 240.605C1376.61 236.627 1370.87 232.364 1364.84 227.816C1359.1 223.267 1354.22 218.857 1350.19 214.585C1349.62 214.016 1348.75 212.733 1347.6 210.737C1346.45 208.74 1345.86 206.312 1345.85 203.452C1345.84 202.022 1346.55 200.588 1347.97 199.152C1349.4 197.429 1350.96 196.564 1352.68 196.556C1353.82 196.55 1354.97 197.117 1356.12 198.255C1362.73 203.944 1370.33 210.344 1378.95 217.453C1387.56 224.277 1396.03 230.529 1404.35 236.21C1404.9 231.06 1406 223.189 1407.67 212.6C1409.62 202.008 1411.57 190.702 1413.52 178.681C1415.46 166.373 1417.26 154.496 1418.93 143.048C1420.87 131.599 1422.26 122.44 1423.09 115.572C1423.08 114.428 1423.36 112.568 1423.92 109.991C1424.48 107.414 1425.32 104.836 1426.46 102.257C1427.59 99.6778 1428.86 97.5268 1430.29 95.8041C1431.71 93.7954 1433.28 92.787 1434.99 92.7789C1435.85 92.7749 1437.71 93.6242 1440.58 95.3267C1443.45 96.7433 1444.89 100.169 1444.92 105.602Z" fill="#080712"/>
</svg>
